<svg width="200" height="203" viewBox="0 0 200 203" fill="none" xmlns="http://www.w3.org/2000/svg">
<g clip-path="url(#clip0_13658_26999)">
<path d="M123.153 186.614L120.312 184.801C120.182 183.209 120.141 181.612 120.19 180.015L121.664 180.392L120.209 179.464C120.29 177.491 120.467 176.189 120.467 176.189C120.467 176.189 126.212 179.927 129.875 184.993L129.25 189.278L130.74 186.282C131.121 186.893 131.464 187.527 131.765 188.181C134.784 194.787 135.077 201.13 132.42 202.348C129.764 203.566 125.163 199.199 122.145 192.593C121.234 190.468 120.654 188.217 120.425 185.916L123.153 186.614Z" fill="#E6E6E6"/>
<path d="M117.317 192.99L113.949 192.909C113.016 191.614 112.157 190.268 111.375 188.876L112.832 188.435L111.107 188.394C110.158 186.663 109.639 185.457 109.639 185.457C109.639 185.457 116.485 185.682 122.235 188.122L123.911 192.113L123.64 188.777C124.282 189.103 124.902 189.469 125.498 189.872C131.49 193.964 135.014 199.242 133.368 201.661C131.723 204.079 125.531 202.722 119.539 198.631C117.663 197.283 116.005 195.656 114.621 193.805L117.317 192.99Z" fill="#E6E6E6"/>
<path d="M137.22 198.948L133.543 198.948L132.164 184.622L137.22 184.742L137.22 198.948Z" fill="#A0616A"/>
<path d="M138.158 202.518L126.304 202.518V202.367C126.304 201.142 126.79 199.966 127.655 199.099C128.521 198.232 129.694 197.745 130.918 197.745L138.158 197.745L138.158 202.518Z" fill="#2F2E41"/>
<path d="M180.594 188.316L178.183 191.096L166.331 183.102L169.89 178.999L180.594 188.316Z" fill="#A0616A"/>
<path d="M183.899 189.949L176.124 198.913L176.011 198.815C175.087 198.011 174.52 196.872 174.434 195.649C174.349 194.426 174.751 193.219 175.554 192.294L180.303 186.818L183.899 189.949Z" fill="#2F2E41"/>
<path d="M199.643 202.97H99.3951C99.3004 202.97 99.2096 202.933 99.1427 202.866C99.0757 202.798 99.0381 202.707 99.0381 202.613C99.0381 202.518 99.0757 202.427 99.1427 202.36C99.2096 202.293 99.3004 202.255 99.3951 202.255H199.643C199.738 202.255 199.829 202.293 199.896 202.36C199.963 202.427 200 202.518 200 202.613C200 202.707 199.963 202.798 199.896 202.866C199.829 202.933 199.738 202.97 199.643 202.97Z" fill="#CACACA"/>
<path d="M145.297 165.226L137.562 193.935H131.564L132.882 162.537L136.359 131.947L148.988 131.274L145.297 165.226Z" fill="#2F2E41"/>
<path d="M158.72 131.946C158.72 131.946 159.391 136.316 156.707 141.023C154.022 145.729 155.7 161.528 155.7 161.528L178.346 184.321C178.346 184.321 174.827 190.438 173.149 190.102C171.471 189.766 144.962 168.251 144.962 168.251L136.359 133.291L158.72 131.946Z" fill="#2F2E41"/>
<path d="M146.233 81.0581C150.496 81.0581 153.951 77.5965 153.951 73.3264C153.951 69.0563 150.496 65.5947 146.233 65.5947C141.971 65.5947 138.516 69.0563 138.516 73.3264C138.516 77.5965 141.971 81.0581 146.233 81.0581Z" fill="#A0616A"/>
<path d="M146.559 85.4838C146.559 85.4838 155.555 82.072 155.555 83.0805C155.555 84.0889 164.424 92.616 162.411 103.709C160.397 114.802 158.049 120.181 159.055 126.232C160.062 132.283 159.391 133.627 159.391 133.627C159.391 133.627 136.023 135.644 135.688 133.291C135.352 130.938 136.662 127.349 136.662 126.341C136.662 125.332 145.935 88.079 146.559 85.4838Z" fill="#575A89"/>
<path opacity="0.2" d="M156.696 118.544L147.814 133.123H150.834L156.696 118.544Z" fill="black"/>
<path d="M149.727 77.9726C149.102 77.6416 148.376 77.5734 147.7 77.3677C145.28 76.6317 143.659 73.8917 144.177 71.4122C144.273 71.0942 144.315 70.7626 144.304 70.4306C144.214 69.6963 143.463 69.2225 142.744 69.0542C142.025 68.8859 141.26 68.9104 140.572 68.6398C139.511 68.222 138.806 67.1293 138.653 65.9971C138.543 64.8509 138.798 63.6993 139.381 62.7069L139.641 63.4559C140.037 63.1199 140.331 62.6792 140.489 62.184C140.785 62.2337 141.062 62.3585 141.296 62.5464C141.529 62.7344 141.71 62.9792 141.822 63.2575C142.239 63.5038 142.299 62.4921 142.76 62.3429C142.962 62.3175 143.167 62.3681 143.335 62.4849C144.263 62.9186 145.341 62.5478 146.337 62.3074C148.061 61.8931 149.858 61.891 151.583 62.3012C152.73 62.5751 153.864 63.052 154.684 63.8995C155.325 64.629 155.818 65.4772 156.135 66.3963C157.014 68.614 157.595 71.0136 157.305 73.3821C157.063 75.3204 156.254 77.1434 154.979 78.6213C154.315 79.3878 152.148 82.0622 150.96 81.6062C149.467 81.0333 151.486 78.9043 149.727 77.9726Z" fill="#2F2E41"/>
<path opacity="0.2" d="M136.634 145.038L136.188 145.208L145.018 168.402L145.464 168.232L136.634 145.038Z" fill="black"/>
<path d="M43.9314 138.631C42.8511 135.522 41.1068 132.686 38.8203 130.322C36.5337 127.958 33.7599 126.122 30.6921 124.942C27.6244 123.762 24.3367 123.266 21.0582 123.49C17.7798 123.714 14.5895 124.651 11.7098 126.237C8.83013 127.823 6.33043 130.019 4.38499 132.672C2.43955 135.325 1.09521 138.371 0.445718 141.598C-0.203778 144.825 -0.142796 148.155 0.624412 151.356C1.39162 154.557 2.84658 157.552 4.88784 160.132C5.09062 160.388 5.30153 160.644 5.51659 160.891C5.53283 160.908 5.5449 160.924 5.56114 160.94C6.08978 161.55 6.65166 162.131 7.24419 162.679C7.39845 162.821 7.56064 162.968 7.72283 163.106C8.03096 163.382 8.3474 163.646 8.67593 163.898C8.80564 164 8.93139 164.101 9.06526 164.199C9.58429 164.593 10.1237 164.958 10.6794 165.308L10.7037 165.32C10.8618 165.418 11.0242 165.515 11.1863 165.608C11.4782 165.783 11.7784 165.95 12.0785 166.108L12.2692 166.206C12.7072 166.433 13.1534 166.649 13.6116 166.848C13.7049 166.888 13.8063 166.929 13.8995 166.97C13.9076 166.974 13.9116 166.974 13.9197 166.978C14.1348 167.067 14.3496 167.152 14.5687 167.234C15.2881 167.509 16.0219 167.745 16.7668 167.941C18.668 168.448 20.6272 168.705 22.5948 168.704C23.3126 168.704 24.0224 168.672 24.724 168.603C26.3271 168.455 27.9098 168.134 29.4448 167.648C29.4487 167.648 29.4529 167.644 29.4569 167.644C30.4265 167.335 31.3738 166.958 32.2918 166.519C32.2958 166.515 32.3039 166.514 32.3081 166.51C32.5148 166.413 32.7136 166.307 32.9164 166.206C32.9489 166.189 32.9812 166.173 33.0137 166.157C33.1758 166.072 33.3382 165.986 33.5004 165.897C33.906 165.673 34.3034 165.438 34.6967 165.186C34.8062 165.121 34.9118 165.052 35.0213 164.979C35.1753 164.877 35.3294 164.772 35.4795 164.662C35.6781 164.524 35.877 164.381 36.0716 164.235C36.1324 164.191 36.1974 164.146 36.2582 164.097C40.0578 161.208 42.8467 157.188 44.2251 152.613C45.6035 148.038 45.5007 143.143 43.9314 138.631Z" fill="white"/>
<path d="M34.3039 163.154C32.3825 162.14 30.3769 161.295 28.3096 160.627L28.046 157.706L17.3554 156.552L15.9968 160.286L12.1602 161.728C12.0229 161.781 11.8922 161.849 11.7708 161.932H11.7667C11.5526 162.076 11.3702 162.264 11.2307 162.482C11.0913 162.7 10.9976 162.944 10.9555 163.199C10.9146 163.453 10.9243 163.713 10.9841 163.963L11.1868 164.796C11.4787 164.971 11.779 165.137 12.079 165.296L12.2697 165.393C12.7077 165.621 13.1539 165.836 13.6121 166.035C13.7054 166.076 13.8068 166.116 13.9 166.157C13.9082 166.161 13.9121 166.161 13.9202 166.165C14.1353 166.254 14.3502 166.34 14.5692 166.421C15.2886 166.696 16.0224 166.932 16.7673 167.128C18.6685 167.636 20.6277 167.892 22.5953 167.892C23.3131 167.892 24.0229 167.859 24.7245 167.79C26.3276 167.642 27.9103 167.322 29.4453 166.835C29.4493 166.835 29.4534 166.831 29.4574 166.831C30.427 166.522 31.3743 166.146 32.2924 165.706C32.2963 165.702 32.3044 165.702 32.3086 165.698C32.5153 165.6 32.7142 165.495 32.9169 165.393C32.9494 165.377 32.9817 165.361 33.0142 165.344C33.1764 165.259 33.3387 165.174 33.5009 165.084C33.9065 164.861 34.3039 164.625 34.6972 164.373C34.8067 164.308 34.9123 164.239 35.0218 164.166C35.1758 164.065 35.3299 163.959 35.48 163.849C35.1028 163.605 34.7095 163.374 34.3039 163.154Z" fill="#E4E4E4"/>
<path d="M14.2403 164.955L13.5712 161.928H11.8232C11.8056 161.928 11.788 161.929 11.7705 161.932H11.7663C11.1382 161.985 10.5332 162.195 10.0063 162.541C9.64886 162.77 9.33108 163.055 9.06543 163.386C9.58446 163.78 10.1239 164.146 10.6796 164.495L10.7039 164.508C10.862 164.605 11.0243 164.703 11.1865 164.796C11.4784 164.971 11.7786 165.137 12.0786 165.296L12.2693 165.393C12.7074 165.621 13.1535 165.836 13.6118 166.035C13.705 166.076 13.8064 166.117 13.8997 166.157C13.9078 166.161 13.9118 166.161 13.9199 166.165C14.135 166.255 14.3498 166.34 14.5689 166.421L14.2403 164.955Z" fill="#E4E4E4"/>
<path d="M22.2805 154.705C26.5328 154.705 29.9799 151.252 29.9799 146.992C29.9799 142.732 26.5328 139.279 22.2805 139.279C18.0282 139.279 14.5811 142.732 14.5811 146.992C14.5811 151.252 18.0282 154.705 22.2805 154.705Z" fill="white"/>
<path d="M22.2694 155.01C21.0506 155.008 19.8484 154.727 18.7544 154.189C17.6604 153.651 16.7036 152.869 15.957 151.904C15.2104 150.939 14.6938 149.816 14.4466 148.62C14.1994 147.425 14.2281 146.188 14.5305 145.005C14.833 143.823 15.4011 142.725 16.1917 141.795C16.9822 140.866 17.9743 140.13 19.092 139.643C20.2098 139.157 21.4238 138.932 22.6414 138.987C23.8589 139.042 25.0479 139.375 26.1174 139.96C27.6752 140.817 28.9043 142.168 29.6111 143.801C30.3179 145.434 30.4622 147.256 30.0213 148.981C29.5804 150.705 28.5793 152.233 27.1758 153.325C25.7724 154.416 24.0462 155.009 22.2694 155.01ZM22.293 139.581C20.4904 139.578 18.7489 140.235 17.3958 141.428C16.0427 142.622 15.171 144.269 14.9445 146.06C14.718 147.852 15.1523 149.664 16.1658 151.158C17.1794 152.651 18.7023 153.723 20.4486 154.17C22.1949 154.618 24.0444 154.412 25.6496 153.59C27.2547 152.769 28.5052 151.388 29.1659 149.708C29.8267 148.028 29.8523 146.164 29.238 144.466C28.6237 142.768 27.4117 141.353 25.8298 140.488C24.7449 139.894 23.529 139.582 22.293 139.581Z" fill="#E4E4E4"/>
<path d="M17.1112 143.235C17.9082 144.18 19.2571 144.447 20.5013 144.556C23.0283 144.778 26.7027 144.418 29.1722 143.847C29.3485 145.558 28.8679 147.403 29.8741 148.811C30.3458 147.107 30.62 145.354 30.6915 143.587C30.7666 142.828 30.6678 142.063 30.4026 141.349C30.0951 140.653 29.4247 140.063 28.6526 140.056C29.2262 139.62 29.8981 139.333 30.609 139.219L28.1643 137.988L28.7921 137.342L24.366 137.071L25.648 136.255C23.7185 135.989 21.7666 135.928 19.8242 136.071C18.9223 136.137 17.9793 136.264 17.2485 136.788C16.5177 137.311 16.0954 138.352 16.5491 139.121C15.9811 139.214 15.4464 139.451 14.9955 139.81C14.5446 140.168 14.1925 140.636 13.9725 141.169C13.6944 142.016 13.6273 142.918 13.777 143.797C13.9437 145.207 14.2709 146.594 14.752 147.929L17.1112 143.235Z" fill="#E4E4E4"/>
<path d="M43.9314 138.631C42.8511 135.522 41.1068 132.686 38.8203 130.322C36.5337 127.958 33.7599 126.122 30.6921 124.942C27.6244 123.762 24.3367 123.266 21.0582 123.49C17.7798 123.714 14.5895 124.651 11.7098 126.237C8.83013 127.823 6.33043 130.019 4.38499 132.672C2.43955 135.325 1.09521 138.371 0.445718 141.598C-0.203778 144.825 -0.142796 148.155 0.624412 151.356C1.39162 154.557 2.84658 157.552 4.88784 160.132C5.09062 160.388 5.30153 160.644 5.51659 160.891C5.53283 160.908 5.5449 160.924 5.56114 160.94C6.08978 161.55 6.65166 162.131 7.24419 162.679C7.39845 162.821 7.56064 162.968 7.72283 163.106C8.03096 163.382 8.3474 163.646 8.67593 163.898C8.80564 164 8.93139 164.101 9.06526 164.199C9.58429 164.593 10.1237 164.958 10.6794 165.308L10.7037 165.32C10.8618 165.418 11.0242 165.515 11.1863 165.608C11.4782 165.783 11.7784 165.95 12.0785 166.108L12.2692 166.206C12.7072 166.433 13.1534 166.649 13.6116 166.848C13.7049 166.888 13.8063 166.929 13.8995 166.97C13.9076 166.974 13.9116 166.974 13.9197 166.978C14.1348 167.067 14.3496 167.152 14.5687 167.234C15.2881 167.509 16.0219 167.745 16.7668 167.941C18.668 168.448 20.6272 168.705 22.5948 168.704C23.3126 168.704 24.0224 168.672 24.724 168.603C26.3271 168.455 27.9098 168.134 29.4448 167.648C29.4487 167.648 29.4529 167.644 29.4569 167.644C30.4265 167.335 31.3738 166.958 32.2918 166.519C32.2958 166.515 32.3039 166.514 32.3081 166.51C32.5148 166.413 32.7136 166.307 32.9164 166.206C32.9489 166.189 32.9812 166.173 33.0137 166.157C33.1758 166.072 33.3382 165.986 33.5004 165.897C33.906 165.673 34.3034 165.438 34.6967 165.186C34.8062 165.121 34.9118 165.052 35.0213 164.979C35.1753 164.877 35.3294 164.772 35.4795 164.662C35.6781 164.524 35.877 164.381 36.0716 164.235C36.1324 164.191 36.1974 164.146 36.2582 164.097C40.0578 161.208 42.8467 157.188 44.2251 152.613C45.6035 148.038 45.5007 143.143 43.9314 138.631ZM35.512 163.11C35.3781 163.215 35.2403 163.317 35.1023 163.41C34.9684 163.512 34.8347 163.61 34.6967 163.699C34.5791 163.784 34.4614 163.866 34.3398 163.943C34.3278 163.951 34.3155 163.959 34.3034 163.967C34.2141 164.028 34.125 164.085 34.0357 164.142C33.699 164.353 33.3583 164.556 33.0136 164.751C32.9772 164.772 32.9406 164.792 32.9041 164.812C32.7501 164.897 32.596 164.979 32.4419 165.06C32.4215 165.072 32.3972 165.08 32.377 165.092L32.3526 165.105C32.158 165.206 31.9591 165.304 31.7605 165.397C30.9936 165.767 30.2039 166.087 29.3961 166.356C29.2905 166.393 29.1852 166.429 29.0798 166.462C27.6269 166.925 26.1285 167.23 24.6105 167.372C23.9453 167.433 23.272 167.465 22.5948 167.465C20.7338 167.469 18.8805 167.226 17.0832 166.742C16.1609 166.501 15.2569 166.194 14.3782 165.824C14.3334 165.803 14.2847 165.787 14.2401 165.767C14.1916 165.747 14.1469 165.73 14.1023 165.71C14.0536 165.69 14.009 165.669 13.9603 165.645C13.5791 165.478 13.2019 165.296 12.8329 165.105L12.6545 165.011C12.2042 164.776 11.7622 164.524 11.3323 164.256C11.2065 164.178 11.0768 164.097 10.955 164.012C10.9227 163.991 10.8942 163.971 10.8618 163.951C10.5738 163.76 10.2859 163.561 10.0061 163.354C9.81558 163.211 9.62488 163.069 9.43833 162.923C9.12604 162.687 8.82583 162.435 8.53393 162.175C8.37987 162.045 8.22977 161.903 8.08382 161.769C7.50876 161.237 6.96442 160.673 6.45345 160.079C6.28314 159.884 6.1168 159.689 5.95857 159.486C5.92261 159.445 5.88877 159.403 5.85718 159.36C3.22212 156.029 1.63715 151.987 1.30441 147.75C0.971679 143.512 1.90625 139.272 3.98895 135.569C6.07165 131.866 9.20808 128.868 12.9983 126.959C16.7884 125.049 21.0606 124.313 25.2698 124.845C29.4791 125.377 33.4347 127.154 36.6322 129.947C39.8297 132.741 42.1242 136.425 43.223 140.53C44.3219 144.636 44.1753 148.976 42.8019 152.997C41.4285 157.019 38.8907 160.539 35.512 163.11Z" fill="#E4E4E4"/>
<path d="M43.9314 77.141C42.8511 74.032 41.1068 71.1965 38.8203 68.8322C36.5337 66.4679 33.7599 64.6318 30.6921 63.4518C27.6244 62.2718 24.3367 61.7764 21.0582 62.0001C17.7798 62.2238 14.5895 63.1612 11.7098 64.747C8.83013 66.3328 6.33043 68.5288 4.38499 71.1819C2.43955 73.835 1.09521 76.8812 0.445718 80.1082C-0.203778 83.3353 -0.142796 86.6654 0.624412 89.8664C1.39162 93.0674 2.84658 96.0622 4.88784 98.642C5.09062 98.8979 5.30153 99.1539 5.51659 99.4017C5.53283 99.418 5.5449 99.4342 5.56114 99.4505C6.08978 100.061 6.65166 100.641 7.24419 101.189C7.39845 101.332 7.56064 101.478 7.72283 101.616C8.03096 101.892 8.3474 102.156 8.67593 102.408C8.80564 102.51 8.93139 102.611 9.06526 102.709C9.58429 103.103 10.1237 103.469 10.6794 103.818L10.7037 103.83C10.8618 103.928 11.0242 104.025 11.1863 104.119C11.4782 104.293 11.7784 104.46 12.0785 104.618L12.2692 104.716C12.7072 104.944 13.1534 105.159 13.6116 105.358C13.7049 105.399 13.8063 105.439 13.8995 105.48C13.9076 105.484 13.9116 105.484 13.9197 105.488C14.1348 105.577 14.3496 105.663 14.5687 105.744C15.2881 106.019 16.0219 106.255 16.7668 106.451C18.668 106.958 20.6272 107.215 22.5948 107.215C23.3126 107.215 24.0224 107.182 24.724 107.113C26.3271 106.965 27.9098 106.645 29.4448 106.158C29.4487 106.158 29.4529 106.154 29.4569 106.154C30.4265 105.845 31.3738 105.469 32.2918 105.029C32.2958 105.025 32.3039 105.025 32.3081 105.021C32.5148 104.923 32.7136 104.818 32.9164 104.716C32.9489 104.7 32.9812 104.683 33.0137 104.667C33.1758 104.582 33.3382 104.497 33.5004 104.407C33.906 104.184 34.3034 103.948 34.6967 103.696C34.8062 103.631 34.9118 103.562 35.0213 103.489C35.1753 103.387 35.3294 103.282 35.4795 103.172C35.6781 103.034 35.877 102.892 36.0716 102.745C36.1324 102.701 36.1974 102.656 36.2582 102.607C40.0578 99.7182 42.8467 95.698 44.2251 91.1232C45.6035 86.5483 45.5007 81.6537 43.9314 77.141Z" fill="white"/>
<path d="M14.6338 89.8766L15.9461 94.4305L32.7154 94.1341L32.5685 85.7903C32.4522 79.1859 27.793 73.4897 21.2006 73.6062C14.6081 73.7228 10.4163 79.3061 10.5326 85.9105L11.4903 94.5092L14.2245 94.4609L14.6338 89.8766Z" fill="#E4E4E4"/>
<path d="M21.9498 93.0608C26.1051 93.0608 29.4737 89.6862 29.4737 85.5233C29.4737 81.3605 26.1051 77.9858 21.9498 77.9858C17.7944 77.9858 14.4258 81.3605 14.4258 85.5233C14.4258 89.6862 17.7944 93.0608 21.9498 93.0608Z" fill="white"/>
<path d="M36.9265 97.2779L36.756 100.448C33.145 104.211 28.2192 106.426 23.0128 106.628C17.8064 106.83 12.7243 105.004 8.83357 101.532C8.65968 101.379 8.48919 101.218 8.32227 101.055C9.36558 100.016 12.2452 97.4521 15.4412 97.2152L29.8529 96.3059C29.8529 96.3059 35.3128 95.6649 36.9265 97.2779Z" fill="#E4E4E4"/>
<path d="M30.1865 80.2306C30.1765 79.6535 29.9961 79.0922 29.6682 78.6175C29.6335 78.5688 29.5987 78.5235 29.5639 78.4782C29.2851 78.1217 28.9279 77.8347 28.5201 77.6395C28.1122 77.4443 27.6648 77.3462 27.2129 77.3529L21.8051 77.4504L16.4007 77.5445C15.6265 77.56 14.8899 77.8821 14.3522 78.4404C13.8145 78.9987 13.5195 79.7476 13.5316 80.5233L14.8184 83.1188L15.5591 84.61L15.6809 84.5403C20.3583 81.9064 22.2711 81.8715 28.4615 84.3208L28.5866 84.3696L29.0771 83.1118L30.1898 80.2584L30.1865 80.2306Z" fill="#E4E4E4"/>
<path d="M38.6331 99.4107C38.1984 99.9681 37.806 99.9579 37.3156 100.467C36.0777 101.759 34.1021 102.866 32.5579 103.789L32.2207 97.7342L36.926 97.2778C36.926 97.2778 37.9793 97.8394 38.6331 99.4107Z" fill="#E4E4E4"/>
<path d="M43.9314 77.141C42.8511 74.032 41.1068 71.1965 38.8203 68.8322C36.5337 66.4679 33.7599 64.6318 30.6921 63.4518C27.6244 62.2718 24.3367 61.7764 21.0582 62.0001C17.7798 62.2238 14.5895 63.1612 11.7098 64.747C8.83013 66.3328 6.33043 68.5288 4.38499 71.1819C2.43955 73.835 1.09521 76.8812 0.445718 80.1082C-0.203778 83.3353 -0.142796 86.6654 0.624412 89.8664C1.39162 93.0674 2.84658 96.0622 4.88784 98.642C5.09062 98.8979 5.30153 99.1539 5.51659 99.4017C5.53283 99.418 5.5449 99.4342 5.56114 99.4505C6.08978 100.061 6.65166 100.641 7.24419 101.189C7.39845 101.332 7.56064 101.478 7.72283 101.616C8.03096 101.892 8.3474 102.156 8.67593 102.408C8.80564 102.51 8.93139 102.611 9.06526 102.709C9.58429 103.103 10.1237 103.469 10.6794 103.818L10.7037 103.83C10.8618 103.928 11.0242 104.025 11.1863 104.119C11.4782 104.293 11.7784 104.46 12.0785 104.618L12.2692 104.716C12.7072 104.944 13.1534 105.159 13.6116 105.358C13.7049 105.399 13.8063 105.439 13.8995 105.48C13.9076 105.484 13.9116 105.484 13.9197 105.488C14.1348 105.577 14.3496 105.663 14.5687 105.744C15.2881 106.019 16.0219 106.255 16.7668 106.451C18.668 106.958 20.6272 107.215 22.5948 107.215C23.3126 107.215 24.0224 107.182 24.724 107.113C26.3271 106.965 27.9098 106.645 29.4448 106.158C29.4487 106.158 29.4529 106.154 29.4569 106.154C30.4265 105.845 31.3738 105.469 32.2918 105.029C32.2958 105.025 32.3039 105.025 32.3081 105.021C32.5148 104.923 32.7136 104.818 32.9164 104.716C32.9489 104.7 32.9812 104.683 33.0137 104.667C33.1758 104.582 33.3382 104.497 33.5004 104.407C33.906 104.184 34.3034 103.948 34.6967 103.696C34.8062 103.631 34.9118 103.562 35.0213 103.489C35.1753 103.387 35.3294 103.282 35.4795 103.172C35.6781 103.034 35.877 102.892 36.0716 102.745C36.1324 102.701 36.1974 102.656 36.2582 102.607C40.0578 99.7182 42.8467 95.698 44.2251 91.1232C45.6035 86.5483 45.5007 81.6537 43.9314 77.141ZM35.512 101.62C35.3781 101.726 35.2403 101.827 35.1023 101.921C34.9684 102.022 34.8347 102.12 34.6967 102.209C34.5791 102.295 34.4614 102.376 34.3398 102.453C34.3278 102.461 34.3155 102.469 34.3034 102.477C34.2141 102.538 34.125 102.595 34.0357 102.652C33.699 102.863 33.3583 103.066 33.0136 103.262C32.9772 103.282 32.9406 103.302 32.9041 103.322C32.7501 103.408 32.596 103.489 32.4419 103.57C32.4215 103.582 32.3972 103.591 32.377 103.603L32.3526 103.615C32.158 103.717 31.9591 103.814 31.7605 103.907C30.9936 104.277 30.2039 104.598 29.3961 104.866C29.2905 104.903 29.1852 104.939 29.0798 104.972C27.6269 105.435 26.1285 105.74 24.6105 105.882C23.9453 105.943 23.272 105.976 22.5948 105.976C20.7338 105.979 18.8805 105.736 17.0832 105.252C16.1609 105.011 15.2569 104.704 14.3782 104.334C14.3334 104.314 14.2847 104.298 14.2401 104.277C14.1916 104.257 14.1469 104.241 14.1023 104.22C14.0536 104.2 14.009 104.18 13.9603 104.155C13.5791 103.989 13.2019 103.806 12.8329 103.615L12.6545 103.522C12.2042 103.286 11.7622 103.034 11.3323 102.766C11.2065 102.689 11.0768 102.607 10.955 102.522C10.9227 102.502 10.8942 102.481 10.8618 102.461C10.5738 102.27 10.2859 102.071 10.0061 101.864C9.81558 101.722 9.62488 101.579 9.43833 101.433C9.12604 101.198 8.82583 100.946 8.53393 100.686C8.37987 100.556 8.22977 100.413 8.08382 100.279C7.50876 99.7474 6.96442 99.1831 6.45345 98.5891C6.28314 98.3941 6.1168 98.1991 5.95857 97.996C5.92261 97.9558 5.88877 97.9137 5.85718 97.87C3.22212 94.5389 1.63715 90.497 1.30441 86.2598C0.971679 82.0226 1.90625 77.7822 3.98895 74.0792C6.07165 70.3763 9.20808 67.3787 12.9983 65.4688C16.7884 63.5589 21.0606 62.8231 25.2698 63.3554C29.4791 63.8877 33.4347 65.6639 36.6322 68.4575C39.8297 71.2511 42.1242 74.9354 43.223 79.0407C44.3219 83.1459 44.1753 87.486 42.8019 91.5075C41.4285 95.5289 38.8907 99.0494 35.512 101.62Z" fill="#E4E4E4"/>
<path d="M44.8161 15.5017C43.7141 12.3301 41.9347 9.4375 39.6021 7.02559C37.2695 4.61367 34.4398 2.74053 31.3103 1.53677C28.1808 0.333008 24.8269 -0.17239 21.4824 0.0558171C18.1379 0.284024 14.8833 1.24034 11.9456 2.85809C9.00798 4.47583 6.45793 6.71606 4.47331 9.42255C2.48869 12.129 1.11727 15.2367 0.454696 18.5287C-0.207882 21.8207 -0.145673 25.2179 0.636987 28.4833C1.41965 31.7488 2.90391 34.8039 4.98629 37.4357C5.19315 37.6968 5.40831 37.9579 5.6275 38.2107C5.64406 38.2273 5.65638 38.2439 5.67294 38.2605C6.21236 38.8829 6.78562 39.4752 7.39009 40.0344C7.54726 40.1795 7.71271 40.3287 7.87816 40.4696C8.19271 40.7515 8.51532 41.0209 8.85047 41.2778C9.50483 41.7945 10.1871 42.2747 10.8943 42.7161L10.9191 42.7285C11.3783 43.0145 11.8458 43.2797 12.3217 43.5326L12.5161 43.6321C12.9629 43.8642 13.4181 44.0838 13.8855 44.2869C13.9807 44.3284 14.0841 44.3698 14.1793 44.4113C14.1876 44.4154 14.1918 44.4154 14.2001 44.4195C15.1447 44.8131 16.1151 45.1413 17.1045 45.4018C19.0439 45.9197 21.0425 46.1816 23.0496 46.1811C23.7819 46.1811 24.506 46.1479 25.2217 46.0774C26.8572 45.9262 28.4717 45.5997 30.0376 45.1034C30.0418 45.1034 30.0459 45.0993 30.0499 45.0993C31.0391 44.7836 32.0054 44.4 32.942 43.9512C32.946 43.9471 32.9545 43.9471 32.9586 43.9429C33.1695 43.8434 33.3723 43.7357 33.5792 43.6321L33.6785 43.5823C33.844 43.4953 34.0094 43.4082 34.1749 43.3171C34.5886 43.0891 34.9941 42.8487 35.3955 42.5917C35.5072 42.5254 35.6147 42.4549 35.7264 42.3803C36.0904 42.1399 36.4504 41.883 36.7979 41.6218C36.8601 41.5763 36.9262 41.5307 36.9884 41.481C40.8644 38.5335 43.7094 34.4324 45.1155 29.7654C46.5217 25.0985 46.4169 20.1053 44.8161 15.5017Z" fill="white"/>
<path d="M30.6564 32.6084C32.5641 32.6084 34.1106 31.0591 34.1106 29.1479C34.1106 27.2368 32.5641 25.6875 30.6564 25.6875C28.7487 25.6875 27.2021 27.2368 27.2021 29.1479C27.2021 31.0591 28.7487 32.6084 30.6564 32.6084Z" fill="#E4E4E4"/>
<path d="M31.6186 25.7828C32.2164 25.7828 32.804 25.9383 33.324 26.2339C33.8439 26.5296 34.2783 26.9554 34.5848 27.4697C34.8912 27.9839 35.0592 28.5691 35.0723 29.1679C35.0854 29.7667 34.9432 30.3586 34.6595 30.8858C34.9589 30.5104 35.1769 30.0767 35.2998 29.6123C35.4226 29.1478 35.4475 28.6628 35.3729 28.1882C35.2983 27.7135 35.1259 27.2597 34.8665 26.8555C34.6072 26.4513 34.2666 26.1057 33.8666 25.8406C33.4666 25.5756 33.0158 25.3969 32.543 25.316C32.0702 25.2351 31.5858 25.2537 31.1206 25.3707C30.6555 25.4877 30.2197 25.7005 29.8411 25.9955C29.4626 26.2906 29.1495 26.6613 28.9219 27.0843C29.2448 26.6781 29.655 26.3501 30.122 26.1248C30.589 25.8995 31.1006 25.7826 31.619 25.7828H31.6186Z" fill="#E4E4E4"/>
<path d="M24.2009 29.1403C29.805 29.1403 34.348 24.5891 34.348 18.975C34.348 13.3608 29.805 8.80957 24.2009 8.80957C18.5967 8.80957 14.0537 13.3608 14.0537 18.975C14.0537 24.5891 18.5967 29.1403 24.2009 29.1403Z" fill="#E4E4E4"/>
<path d="M16.2373 12.6678C17.9857 10.6979 20.4297 9.48562 23.0535 9.28672C25.6773 9.08782 28.2755 9.9179 30.3 11.6018C30.2172 11.5226 30.1345 11.443 30.0488 11.3664C28.0441 9.56904 25.409 8.64282 22.7228 8.79134C20.0365 8.93986 17.5191 10.151 15.724 12.1584C13.9289 14.1658 13.003 16.8052 13.1499 19.4963C13.2968 22.1874 14.5045 24.71 16.5074 26.5093C16.5266 26.5266 16.546 26.5438 16.5653 26.561C16.6514 26.6376 16.7399 26.7102 16.8281 26.7835C14.9217 24.9667 13.7945 22.4789 13.6843 19.8452C13.5742 17.2116 14.4897 14.638 16.2377 12.6678L16.2373 12.6678Z" fill="#E4E4E4"/>
<path d="M24.1144 29.054C27.7237 29.054 30.6497 26.1228 30.6497 22.507C30.6497 18.8912 27.7237 15.96 24.1144 15.96C20.5051 15.96 17.5791 18.8912 17.5791 22.507C17.5791 26.1228 20.5051 29.054 24.1144 29.054Z" fill="white"/>
<path d="M35.8095 39.5656V41.7624C35.408 42.0193 35.0026 42.2597 34.5889 42.4877C34.4234 42.5788 34.258 42.6659 34.0925 42.753L33.9931 42.8027C33.7863 42.9063 33.5834 43.0141 33.3725 43.1135C33.3685 43.1177 33.36 43.1177 33.356 43.1218C32.4194 43.5706 31.4531 43.9542 30.4639 44.2699C30.4599 44.2699 30.4558 44.2741 30.4516 44.2741C28.8857 44.7703 27.2711 45.0968 25.6357 45.2481C24.9199 45.3185 24.1959 45.3517 23.4636 45.3517C21.4565 45.3523 19.4579 45.0903 17.5184 44.5725C16.529 44.3119 15.5586 43.9837 14.614 43.5902C14.6058 43.586 14.6015 43.586 14.5932 43.5819C14.4981 43.5404 14.3947 43.499 14.2995 43.4575C13.832 43.2544 13.3769 43.0348 12.93 42.8027L12.7357 42.7032C12.2597 42.4504 11.7923 42.1851 11.3331 41.8991L11.3082 41.8867C10.6011 41.4453 9.91879 40.9651 9.26443 40.4485C8.92929 40.1915 8.60667 39.9221 8.29213 39.6402C8.12667 39.4993 7.96123 39.3501 7.80406 39.205C7.19959 38.6458 6.62634 38.0536 6.08691 37.4311C6.15846 36.9994 6.26362 36.5739 6.40146 36.1587L6.40549 36.1545C6.43025 36.0837 6.45926 36.0145 6.49236 35.9473C6.51518 35.8878 6.54142 35.8297 6.57093 35.7732C7.31153 34.3847 8.6521 34.0407 10.3153 33.9661C11.2545 33.9246 12.2929 33.9702 13.3894 33.9578C13.9686 33.9536 14.5684 33.9329 15.1684 33.879C18.954 33.5351 18.2673 31.2969 18.4368 30.0908C18.6065 28.922 19.6574 29.9333 19.7277 29.9996L19.7317 30.0037C21.874 31.0081 24.2441 31.4243 26.5997 31.2098C27.0051 31.1601 27.4106 31.1311 27.816 31.1187C28.8835 31.1062 28.6518 31.4129 28.2837 31.6658C28.105 31.7836 27.9184 31.8888 27.7251 31.9808C27.7251 31.9808 27.5554 33.017 27.3817 34.5671C27.2163 36.0509 32.4333 36.5649 33.4553 36.8881H33.4594C34.0427 37.103 34.5632 37.4605 34.9736 37.9281C35.384 38.3957 35.6713 38.9586 35.8095 39.5656Z" fill="#E4E4E4"/>
<path d="M18.5254 14.3232V20.8719H20.0388L21.9647 18.8045L21.707 20.8719H28.397L27.9833 18.8045L28.8107 20.8719H29.8773V14.3232H18.5254Z" fill="#E4E4E4"/>
<path d="M17.4935 22.0766C17.7784 22.0766 18.0094 21.6524 18.0094 21.1291C18.0094 20.6058 17.7784 20.1816 17.4935 20.1816C17.2085 20.1816 16.9775 20.6058 16.9775 21.1291C16.9775 21.6524 17.2085 22.0766 17.4935 22.0766Z" fill="#E4E4E4"/>
<path d="M30.7366 22.0766C31.0216 22.0766 31.2525 21.6524 31.2525 21.1291C31.2525 20.6058 31.0216 20.1816 30.7366 20.1816C30.4517 20.1816 30.2207 20.6058 30.2207 21.1291C30.2207 21.6524 30.4517 22.0766 30.7366 22.0766Z" fill="#E4E4E4"/>
<path d="M44.8161 15.5017C43.7141 12.3301 41.9347 9.4375 39.6021 7.02559C37.2695 4.61367 34.4398 2.74053 31.3103 1.53677C28.1808 0.333008 24.8269 -0.17239 21.4824 0.0558171C18.1379 0.284024 14.8833 1.24034 11.9456 2.85809C9.00798 4.47583 6.45793 6.71606 4.47331 9.42255C2.48869 12.129 1.11727 15.2367 0.454696 18.5287C-0.207882 21.8207 -0.145673 25.2179 0.636987 28.4833C1.41965 31.7488 2.90391 34.8039 4.98629 37.4357C5.19315 37.6968 5.40831 37.9579 5.6275 38.2107C5.64406 38.2273 5.65638 38.2439 5.67294 38.2605C6.21236 38.8829 6.78562 39.4752 7.39009 40.0344C7.54726 40.1795 7.71271 40.3287 7.87816 40.4696C8.19271 40.7515 8.51532 41.0209 8.85047 41.2778C9.50483 41.7945 10.1871 42.2747 10.8943 42.7161L10.9191 42.7285C11.3783 43.0145 11.8458 43.2797 12.3217 43.5326L12.5161 43.6321C12.9629 43.8642 13.4181 44.0838 13.8855 44.2869C13.9807 44.3284 14.0841 44.3698 14.1793 44.4113C14.1876 44.4154 14.1918 44.4154 14.2001 44.4195C15.1447 44.8131 16.1151 45.1413 17.1045 45.4018C19.0439 45.9197 21.0425 46.1816 23.0496 46.1811C23.7819 46.1811 24.506 46.1479 25.2217 46.0774C26.8572 45.9262 28.4717 45.5997 30.0376 45.1034C30.0418 45.1034 30.0459 45.0993 30.0499 45.0993C31.0391 44.7836 32.0054 44.4 32.942 43.9512C32.946 43.9471 32.9545 43.9471 32.9586 43.9429C33.1695 43.8434 33.3723 43.7357 33.5792 43.6321L33.6785 43.5823C33.844 43.4953 34.0094 43.4082 34.1749 43.3171C34.5886 43.0891 34.9941 42.8487 35.3955 42.5917C35.5072 42.5254 35.6147 42.4549 35.7264 42.3803C36.0904 42.1399 36.4504 41.883 36.7979 41.6218C36.8601 41.5763 36.9262 41.5307 36.9884 41.481C40.8644 38.5335 43.7094 34.4324 45.1155 29.7654C46.5217 25.0985 46.4169 20.1053 44.8161 15.5017ZM36.227 40.4738C36.0904 40.5815 35.9498 40.6851 35.8092 40.7805C35.6727 40.8841 35.5361 40.9836 35.3955 41.0747C35.2755 41.1618 35.1555 41.2447 35.0313 41.3234C34.9278 41.3939 34.8244 41.4602 34.721 41.5265C34.3777 41.742 34.0303 41.9493 33.6785 42.1482C33.6412 42.1689 33.604 42.1897 33.5666 42.2104C33.4095 42.2974 33.2523 42.3803 33.0951 42.4632C33.0743 42.4756 33.0495 42.484 33.0288 42.4964L33.004 42.5088C32.8054 42.6124 32.6028 42.7119 32.4 42.8072C31.6177 43.1847 30.812 43.5114 29.9879 43.7854C29.8804 43.8227 29.7727 43.86 29.6653 43.8932C28.1831 44.3654 26.6545 44.6767 25.106 44.8216C24.4274 44.8838 23.7405 44.9169 23.0496 44.9169C21.1511 44.9208 19.2605 44.6728 17.4271 44.1792C16.4862 43.9331 15.564 43.6201 14.6675 43.2425C14.5724 43.2051 14.4772 43.1637 14.3861 43.1264C14.3366 43.1057 14.291 43.085 14.2413 43.0601C13.8524 42.8901 13.4678 42.7037 13.0912 42.5088L12.9092 42.4135C12.45 42.1731 11.9989 41.9161 11.5603 41.6426C11.3991 41.5431 11.2377 41.4395 11.0805 41.3317C10.584 41.0043 10.0999 40.652 9.62822 40.2831C9.30964 40.0427 9.00358 39.7857 8.70561 39.5205C8.54844 39.3878 8.39531 39.2428 8.24643 39.106C7.65983 38.5633 7.10453 37.9877 6.58322 37.3818C6.40948 37.1828 6.23979 36.9839 6.07838 36.7766C6.04168 36.7357 6.00716 36.6928 5.97495 36.6482C3.28682 33.25 1.66994 29.1267 1.33051 24.8041C0.991076 20.4816 1.94448 16.1558 4.06913 12.3783C6.19378 8.60077 9.39338 5.54283 13.2599 3.59444C17.1264 1.64604 21.4845 0.895489 25.7786 1.4385C30.0726 1.98152 34.1079 3.79348 37.3698 6.64332C40.6317 9.49316 42.9724 13.2517 44.0933 17.4396C45.2143 21.6276 45.0647 26.0551 43.6637 30.1575C42.2627 34.2599 39.6737 37.8514 36.227 40.4738Z" fill="#E4E4E4"/>
<path d="M51.2302 51.7986L35.004 51.4306C33.3809 45.132 34.1116 39.1348 35.4068 33.6084L51.633 33.9764C49.9918 39.7867 49.8532 45.9198 51.2302 51.7986Z" fill="#537FE7"/>
<path d="M38.1875 37.5473L38.1965 36.9287L46.6027 37.2297L46.594 37.8483L38.1875 37.5473Z" fill="white"/>
<path d="M38.1514 40.0214L38.1604 39.4028L46.5666 39.7042L46.5576 40.3227L38.1514 40.0214Z" fill="white"/>
<path d="M38.1162 42.4955L38.1252 41.877L46.5315 42.178L46.5225 42.7965L38.1162 42.4955Z" fill="white"/>
<path d="M38.0811 44.9696L38.0898 44.3511L46.4963 44.6521L46.4873 45.2707L38.0811 44.9696Z" fill="white"/>
<path d="M38.0459 47.4438L38.0546 46.8252L46.4611 47.1265L46.4521 47.7448L38.0459 47.4438Z" fill="white"/>
<path d="M51.2302 110.381L35.004 110.013C33.3809 103.714 34.1116 97.7168 35.4068 92.1904L51.633 92.5585C49.9918 98.3688 49.8532 104.502 51.2302 110.381Z" fill="#537FE7"/>
<path d="M38.1875 96.1288L38.1965 95.5103L46.6027 95.8113L46.594 96.4298L38.1875 96.1288Z" fill="white"/>
<path d="M38.1514 98.6029L38.1604 97.9844L46.5666 98.2857L46.5576 98.9043L38.1514 98.6029Z" fill="white"/>
<path d="M38.1162 101.077L38.1252 100.458L46.5315 100.76L46.5225 101.378L38.1162 101.077Z" fill="white"/>
<path d="M38.0811 103.552L38.0898 102.933L46.4963 103.234L46.4873 103.853L38.0811 103.552Z" fill="white"/>
<path d="M38.0459 106.025L38.0546 105.407L46.4611 105.708L46.4521 106.326L38.0459 106.025Z" fill="white"/>
<path d="M51.2302 168.962L35.004 168.594C33.3809 162.296 34.1116 156.298 35.4068 150.772L51.633 151.14C49.9918 156.95 49.8532 163.083 51.2302 168.962Z" fill="#537FE7"/>
<path d="M38.1875 154.711L38.1965 154.092L46.6027 154.393L46.594 155.012L38.1875 154.711Z" fill="white"/>
<path d="M38.1514 157.184L38.1604 156.566L46.5666 156.867L46.5576 157.486L38.1514 157.184Z" fill="white"/>
<path d="M38.1162 159.659L38.1252 159.041L46.5315 159.342L46.5225 159.96L38.1162 159.659Z" fill="white"/>
<path d="M38.0811 162.133L38.0898 161.515L46.4963 161.816L46.4873 162.434L38.0811 162.133Z" fill="white"/>
<path d="M38.0459 164.607L38.0546 163.988L46.4611 164.29L46.4521 164.908L38.0459 164.607Z" fill="white"/>
<path d="M137.807 135.006C137.823 134.564 137.934 134.132 138.135 133.738C138.335 133.345 138.619 133 138.966 132.729C139.314 132.457 139.717 132.265 140.147 132.166C140.576 132.068 141.022 132.064 141.453 132.157L147.012 122.979L149.396 128.02L143.752 135.963C143.549 136.678 143.091 137.294 142.465 137.693C141.839 138.092 141.088 138.248 140.355 138.13C139.623 138.012 138.958 137.629 138.489 137.053C138.019 136.477 137.777 135.749 137.807 135.006Z" fill="#A0616A"/>
<path d="M157.713 86.5652C157.713 86.5652 165.597 87.4694 162.662 101.976C159.726 116.483 148.317 133.291 148.317 133.291L140.6 129.594L150.666 109.76L148.317 97.3223C148.317 97.3223 146.975 85.5567 157.713 86.5652Z" fill="#575A89"/>
</g>
<defs>
<clipPath id="clip0_13658_26999">
<rect width="200" height="202.97" fill="white"/>
</clipPath>
</defs>
</svg>
