<svg width="288" height="220" viewBox="0 0 288 220" fill="none" xmlns="http://www.w3.org/2000/svg">
<g clip-path="url(#clip0_13658_24711)">
<path d="M121.266 0L121.133 0.597601L230.345 0.730412C261.784 0.730412 287.269 26.1853 287.269 57.5858V124.536H288V8.28655C288 3.71001 284.286 0 279.704 0H121.266Z" fill="#E6E6E6"/>
<path d="M241.552 28.5078C243.26 28.5078 244.644 27.0943 244.644 25.3506C244.644 23.6069 243.26 22.1934 241.552 22.1934C239.844 22.1934 238.46 23.6069 238.46 25.3506C238.46 27.0943 239.844 28.5078 241.552 28.5078Z" fill="#3F3D56"/>
<path d="M230.869 28.5078C232.577 28.5078 233.962 27.0943 233.962 25.3506C233.962 23.6069 232.577 22.1934 230.869 22.1934C229.162 22.1934 227.777 23.6069 227.777 25.3506C227.777 27.0943 229.162 28.5078 230.869 28.5078Z" fill="#3F3D56"/>
<path d="M220.188 28.5078C221.896 28.5078 223.28 27.0943 223.28 25.3506C223.28 23.6069 221.896 22.1934 220.188 22.1934C218.48 22.1934 217.096 23.6069 217.096 25.3506C217.096 27.0943 218.48 28.5078 220.188 28.5078Z" fill="#3F3D56"/>
<path d="M194.885 73.1025H151.639C150.155 73.1025 148.948 71.8969 148.948 70.415C148.948 68.9332 150.155 67.7275 151.639 67.7275H194.885C196.369 67.7275 197.576 68.9332 197.576 70.415C197.576 71.8969 196.369 73.1025 194.885 73.1025Z" fill="#E6E6E6"/>
<path d="M228.635 82.1982H151.639C150.155 82.1982 148.948 80.9926 148.948 79.5107C148.948 78.0289 150.155 76.8232 151.639 76.8232H228.635C230.118 76.8232 231.325 78.0289 231.325 79.5107C231.325 80.9926 230.118 82.1982 228.635 82.1982Z" fill="#E6E6E6"/>
<path d="M243.205 96.3279H137.069C134.777 96.3279 132.913 94.4658 132.913 92.1772V57.7493C132.913 55.4607 134.777 53.5986 137.069 53.5986H243.205C245.496 53.5986 247.36 55.4607 247.36 57.7493V92.1772C247.36 94.4658 245.496 96.3279 243.205 96.3279ZM137.069 54.329C135.181 54.329 133.644 55.8633 133.644 57.7493V92.1772C133.644 94.0631 135.181 95.5974 137.069 95.5974H243.205C245.093 95.5974 246.629 94.0631 246.629 92.1772V57.7493C246.629 55.8633 245.093 54.329 243.205 54.329H137.069Z" fill="#3F3D56"/>
<path d="M245.219 105.545C250.268 105.545 254.36 101.457 254.36 96.4144C254.36 91.3719 250.268 87.2842 245.219 87.2842C240.171 87.2842 236.078 91.3719 236.078 96.4144C236.078 101.457 240.171 105.545 245.219 105.545Z" fill="#537FE7"/>
<path d="M247.459 93.4857C246.727 92.6047 245.507 92.0849 244.373 92.416C243.334 92.7193 242.469 93.7019 242.566 94.8229C242.611 95.3432 242.823 95.8431 243.188 96.2208C243.6 96.6475 244.126 96.7948 244.702 96.8434C245.317 96.8952 245.845 96.9866 246.254 97.4927C246.611 97.9328 246.722 98.5166 246.518 99.0489C246.033 100.314 244.318 100.461 243.601 99.3237C243.319 98.8773 242.607 99.2891 242.89 99.7384C243.475 100.666 244.664 101.176 245.732 100.83C246.771 100.492 247.534 99.4162 247.438 98.3155C247.337 97.1725 246.426 96.2307 245.294 96.0758C244.698 95.9942 244.074 96.0594 243.671 95.5263C243.355 95.1098 243.288 94.5339 243.526 94.067C243.817 93.4973 244.449 93.1391 245.083 93.1379C245.802 93.1366 246.43 93.5279 246.877 94.0667C247.215 94.4742 247.794 93.8901 247.459 93.4857Z" fill="white"/>
<path d="M244.258 90.7652L243.863 102.258C243.85 102.61 244.399 102.61 244.411 102.258L244.806 90.7652C244.818 90.4127 244.27 90.4131 244.258 90.7652Z" fill="white"/>
<path d="M245.537 90.7652L245.142 102.258C245.13 102.61 245.678 102.61 245.69 102.258L246.086 90.7652C246.098 90.4127 245.549 90.4131 245.537 90.7652Z" fill="white"/>
<path d="M34.6268 214.264L38.5106 214.263L40.3581 199.301L34.626 199.301L34.6268 214.264Z" fill="#A0616A"/>
<path d="M34.4904 218.311L46.4337 218.31V218.159C46.4336 215.595 44.3524 213.516 41.7851 213.516L39.6032 211.863L35.5328 213.517L34.4902 213.517L34.4904 218.311Z" fill="#2F2E41"/>
<path d="M58.3621 214.264L62.2459 214.263L64.0935 199.301L58.3613 199.301L58.3621 214.264Z" fill="#A0616A"/>
<path d="M58.2258 218.311L70.1691 218.31V218.159C70.1689 215.595 68.0877 213.516 65.5204 213.516L63.3385 211.863L59.2682 213.517L58.2256 213.517L58.2258 218.311Z" fill="#2F2E41"/>
<path d="M31.196 119.076L66.7136 118.09L66.4861 138.104L64.6123 161.498C64.6123 161.498 68.9845 178.654 65.2369 195.81L64.9246 208.911L54.9309 208.287C54.9309 208.287 53.2133 182.553 55.3994 172.884L48.841 137.948L42.595 171.948C42.595 171.948 43.5319 191.599 41.0335 199.397V206.747H33.9674C33.9674 206.747 26.3553 180.994 31.9767 167.893L31.196 119.076Z" fill="#2F2E41"/>
<path d="M56.7425 60.9174C56.7425 60.9174 55.7841 58.5155 55.0685 57.4434C50.0592 57.4434 49.4226 57.787 45.0499 57.4434L32.9119 122.533C32.9119 122.533 26.2387 128.149 33.5664 128.149C40.8942 128.149 51.4597 126.107 54.3567 127.639C57.2537 129.171 66.456 126.788 66.456 126.788L56.7425 60.9174Z" fill="#537FE7"/>
<path d="M45.2503 57.3145L40.7567 62.0895L37.789 62.1287C35.0443 62.1649 32.8443 64.4088 32.8657 67.1504L33.7962 94.5029C33.7962 94.5029 25.3868 120.524 31.0104 121.545L29.988 125.46L40.7756 132.098C40.7756 132.098 44.0473 114.618 44.5585 110.703C45.0697 106.789 47.6104 84.7266 47.6104 84.7266C47.6104 84.7266 47.1147 66.5781 46.7739 64.8968L45.2503 57.3145Z" fill="#2F2E41"/>
<path d="M55.2085 57.5137L52.9932 68.9176L58.6168 99.0443C58.6168 99.0443 57.2535 126.958 61.5138 129.682L68.2278 127.946L67.7165 122.499C67.7165 122.499 68.3303 121.171 67.9894 116.065C67.6486 110.959 65.6402 101.651 65.6402 101.651L68.6148 67.7261C68.6148 67.7261 61.1729 60.7476 57.9351 61.5987L55.2085 57.5137Z" fill="#2F2E41"/>
<path d="M18.4866 121.631L19.1795 112.346L24.5456 112.001L23.4633 121.792C23.6367 122.038 23.7779 122.313 23.8769 122.614C24.4157 124.249 23.5254 126.01 21.8884 126.549C20.2514 127.087 18.4876 126.197 17.9488 124.562C17.6052 123.52 17.8447 122.427 18.4866 121.631Z" fill="#A0616A"/>
<path d="M39.1499 62.2402L36.323 62.287C34.2334 62.3215 32.3868 63.6531 31.6963 65.6232L21.1029 95.8471L20.0033 101.483C20.0033 101.483 14.9215 113.653 16.8269 115.494L17.7352 118.884L24.4736 118.773L24.4276 115.995C24.4276 115.995 26.4852 115.803 26.4754 113.356C26.4754 113.356 31.8081 104.182 30.397 101.311L34.0299 94.2715L39.1499 62.2402Z" fill="#2F2E41"/>
<path d="M105.336 109.839L98.4976 103.511L94.333 106.908L101.802 113.342C101.842 113.64 101.926 113.937 102.059 114.225C102.779 115.789 104.632 116.473 106.198 115.754C107.763 115.034 108.449 113.184 107.728 111.62C107.269 110.622 106.349 109.985 105.336 109.839Z" fill="#A0616A"/>
<path d="M64.2953 64.3555L60.8652 77.5896L72.8774 94.0779L76.7884 98.2862C76.7884 98.2862 93.6327 111.43 96.2446 110.977L99.5218 112.241L103.402 106.738L101.129 105.139C101.129 105.139 102.185 103.365 100.2 101.931C100.2 101.931 85.9273 90.3501 82.7737 89.7973L79.2199 82.7176L68.3605 67.6079L64.2953 64.3555Z" fill="#2F2E41"/>
<path d="M56.1223 54.5846C56.0754 54.6221 56.0316 54.6502 55.9847 54.6783C55.6219 54.9189 55.2435 55.1344 54.8463 55.3187C54.84 55.325 54.8307 55.3281 54.8213 55.3312C54.1051 55.6686 53.3326 55.9216 52.5163 56.0715C51.6813 56.2246 50.8525 56.2652 50.0456 56.1996C45.8891 55.8716 42.3112 52.801 41.5168 48.512C41.251 47.0813 41.326 45.6694 41.6795 44.3543C42.5958 40.9556 45.3887 38.213 49.0854 37.5289C54.2114 36.5824 59.1341 39.9654 60.0818 45.0853C60.7823 48.8713 59.1122 52.5479 56.1223 54.5846Z" fill="#A0616A"/>
<path d="M45.0502 54.3546L45.6196 51.7281C45.6196 51.7281 44.0696 50.3806 45.6196 49.1277L46.4631 48.5803H47.751L48.5827 44.3463L53.8816 43.9935C53.8816 43.9935 59.1805 42.935 59.887 41.1708C59.887 41.1708 58.1207 40.818 58.4739 39.4066C58.4739 39.4066 54.2348 34.1141 50.349 35.5254C46.4631 36.9368 45.0501 38.3481 45.0501 38.3481C45.0501 38.3481 38.6914 37.2896 38.6914 45.052C38.6914 52.8144 45.0502 54.3546 45.0502 54.3546Z" fill="#2F2E41"/>
<path d="M103.13 122.12H92.4544C91.2971 122.12 90.3555 121.18 90.3555 120.024V99.6492C90.3555 98.4932 91.2971 97.5527 92.4544 97.5527H103.13C104.287 97.5527 105.229 98.4932 105.229 99.6492V120.024C105.229 121.18 104.287 122.12 103.13 122.12Z" fill="#3F3D56"/>
<path d="M105.229 105.047C105.18 105.047 105.141 105.087 105.141 105.136V107.974C105.141 108.023 105.18 108.062 105.229 108.062C105.278 108.062 105.318 108.023 105.318 107.974V105.136C105.318 105.087 105.278 105.047 105.229 105.047Z" fill="#3F3D56"/>
<path d="M105.03 99.649V120.023C105.03 121.029 104.246 121.852 103.254 121.916H103.254C103.239 121.917 103.224 121.918 103.209 121.918C103.183 121.92 103.157 121.92 103.13 121.92C103.13 121.92 103.033 121.913 102.854 121.9C102.674 121.886 102.411 121.866 102.084 121.84C101.986 121.833 101.883 121.824 101.773 121.815C101.556 121.798 101.317 121.778 101.061 121.756C100.959 121.748 100.853 121.738 100.745 121.729C100.194 121.682 99.5761 121.626 98.9248 121.563C98.8147 121.553 98.7037 121.542 98.5918 121.531C98.5625 121.528 98.5327 121.525 98.503 121.522C98.0386 121.477 97.5613 121.427 97.0822 121.375C97.0525 121.372 97.0227 121.369 96.9934 121.366C96.1681 121.275 95.3396 121.176 94.5644 121.07C93.9681 120.988 93.4034 120.902 92.8964 120.813C92.7312 120.784 92.5722 120.754 92.4204 120.725C92.3907 120.719 92.3609 120.713 92.3316 120.707C91.2585 120.492 90.5557 120.261 90.5557 120.023V99.649C90.5557 98.6012 91.4059 97.752 92.455 97.752H93.589C93.7701 97.752 93.9157 97.893 93.9313 98.0735C93.9326 98.0854 93.9339 98.0974 93.9362 98.1094C93.969 98.2908 94.1355 98.4171 94.3202 98.4171H101.265C101.45 98.4171 101.616 98.2908 101.649 98.1094C101.651 98.0974 101.653 98.0854 101.654 98.0735C101.669 97.893 101.815 97.752 101.996 97.752H103.13C104.179 97.752 105.03 98.6012 105.03 99.649Z" fill="#537FE7"/>
<path d="M90.3115 102.919C90.2625 102.919 90.2227 102.959 90.2227 103.008V103.717C90.2227 103.766 90.2625 103.806 90.3115 103.806C90.3604 103.806 90.4002 103.766 90.4002 103.717V103.008C90.4002 102.959 90.3604 102.919 90.3115 102.919Z" fill="#3F3D56"/>
<path d="M90.3115 105.047C90.2625 105.047 90.2227 105.087 90.2227 105.136V106.51C90.2227 106.559 90.2625 106.599 90.3115 106.599C90.3604 106.599 90.4002 106.559 90.4002 106.51V105.136C90.4002 105.087 90.3604 105.047 90.3115 105.047Z" fill="#3F3D56"/>
<path d="M90.3115 106.998C90.2625 106.998 90.2227 107.038 90.2227 107.087V108.461C90.2227 108.51 90.2625 108.55 90.3115 108.55C90.3604 108.55 90.4002 108.51 90.4002 108.461V107.087C90.4002 107.038 90.3604 106.998 90.3115 106.998Z" fill="#3F3D56"/>
<path d="M93.4633 98.0625H91.9538C91.8925 98.0625 91.8428 98.1121 91.8428 98.1734C91.8428 98.2346 91.8925 98.2842 91.9538 98.2842H93.4633C93.5246 98.2842 93.5743 98.2346 93.5743 98.1734C93.5743 98.1121 93.5246 98.0625 93.4633 98.0625Z" fill="#3F3D56"/>
<path d="M102.277 98.2845C102.375 98.2845 102.455 98.205 102.455 98.1071C102.455 98.0091 102.375 97.9297 102.277 97.9297C102.179 97.9297 102.1 98.0091 102.1 98.1071C102.1 98.205 102.179 98.2845 102.277 98.2845Z" fill="#3F3D56"/>
<path d="M102.765 98.2845C102.864 98.2845 102.943 98.205 102.943 98.1071C102.943 98.0091 102.864 97.9297 102.765 97.9297C102.667 97.9297 102.588 98.0091 102.588 98.1071C102.588 98.205 102.667 98.2845 102.765 98.2845Z" fill="#3F3D56"/>
<path d="M103.254 98.2845C103.352 98.2845 103.431 98.205 103.431 98.1071C103.431 98.0091 103.352 97.9297 103.254 97.9297C103.156 97.9297 103.076 98.0091 103.076 98.1071C103.076 98.205 103.156 98.2845 103.254 98.2845Z" fill="#3F3D56"/>
<path d="M98.0287 115.644C101.133 115.644 103.65 113.131 103.65 110.03C103.65 106.929 101.133 104.415 98.0287 104.415C94.924 104.415 92.4072 106.929 92.4072 110.03C92.4072 113.131 94.924 115.644 98.0287 115.644Z" fill="white"/>
<path d="M99.4059 108.228C98.9563 107.687 98.2056 107.367 97.5081 107.571C96.8692 107.757 96.3375 108.361 96.3971 109.051C96.4248 109.371 96.5554 109.678 96.7798 109.91C97.0333 110.173 97.3564 110.263 97.7108 110.293C98.089 110.325 98.4135 110.381 98.6654 110.693C98.8844 110.963 98.9528 111.322 98.8273 111.65C98.5291 112.427 97.4743 112.518 97.0334 111.819C96.8603 111.544 96.4223 111.797 96.5965 112.074C96.9561 112.644 97.6871 112.958 98.3441 112.745C98.9832 112.537 99.4525 111.875 99.3931 111.199C99.3313 110.496 98.7711 109.916 98.0749 109.821C97.7082 109.771 97.3245 109.811 97.0764 109.483C96.8825 109.227 96.8409 108.873 96.9874 108.586C97.1663 108.236 97.5553 108.015 97.9447 108.015C98.3869 108.014 98.7731 108.254 99.0482 108.586C99.2562 108.836 99.6124 108.477 99.4059 108.228Z" fill="#537FE7"/>
<path d="M97.4376 106.556L97.1945 113.624C97.187 113.84 97.5243 113.84 97.5317 113.624L97.7749 106.556C97.7823 106.339 97.445 106.34 97.4376 106.556Z" fill="#537FE7"/>
<path d="M98.2237 106.556L97.9806 113.624C97.9731 113.84 98.3104 113.84 98.3179 113.624L98.561 106.556C98.5685 106.339 98.2312 106.34 98.2237 106.556Z" fill="#537FE7"/>
<path d="M19.4141 212.814C18.6749 212.86 18.2664 211.943 18.8257 211.408L18.8813 211.187C18.874 211.169 18.8666 211.152 18.8592 211.134C18.1116 209.354 15.5781 209.366 14.837 211.149C14.1791 212.732 13.3415 214.317 13.1353 215.99C13.0429 216.729 13.0845 217.481 13.2485 218.206C11.7071 214.843 10.8959 211.17 10.8959 207.477C10.8959 206.549 10.9468 205.621 11.0508 204.696C11.1363 203.939 11.2541 203.186 11.4067 202.441C12.2317 198.41 14.0181 194.572 16.5949 191.366C17.8336 190.689 18.8666 189.632 19.4906 188.365C19.7148 187.908 19.8904 187.416 19.9736 186.915C19.8326 186.934 19.4421 184.789 19.5484 184.658C19.3519 184.36 19.0003 184.212 18.7857 183.922C17.7187 182.477 16.2485 182.729 15.481 184.693C13.8414 185.519 13.8256 186.89 14.8316 188.208C15.4716 189.047 15.5596 190.182 16.1211 191.079C16.0633 191.153 16.0033 191.225 15.9455 191.299C14.886 192.656 13.9697 194.115 13.1972 195.648C13.4155 193.944 13.0932 191.892 12.5437 190.569C11.9182 189.062 10.7457 187.793 9.71327 186.49C8.47311 184.925 5.93006 185.608 5.71157 187.592C5.70945 187.611 5.70739 187.63 5.70537 187.649C5.85873 187.736 6.00897 187.828 6.15572 187.925C6.9928 188.477 6.70351 189.774 5.71166 189.926L5.6892 189.93C5.74467 190.482 5.83942 191.029 5.97807 191.566C4.65355 196.683 7.5131 198.546 11.5961 198.63C11.6863 198.676 11.7741 198.722 11.8642 198.766C11.4506 199.929 11.1201 201.123 10.8751 202.332C10.6556 203.401 10.503 204.481 10.4175 205.566C10.3112 206.935 10.3205 208.31 10.436 209.677L10.4291 209.628C10.1356 208.124 9.3175 206.718 8.12962 205.744C6.36006 204.292 3.85999 203.757 1.95094 202.59C1.03198 202.028 -0.1456 202.754 0.0147825 203.818L0.0225899 203.869C0.306841 203.985 0.584155 204.119 0.852237 204.269C1.00559 204.355 1.15583 204.447 1.30259 204.544C2.13967 205.097 1.85037 206.393 0.858524 206.546L0.836047 206.549C0.819874 206.552 0.806002 206.554 0.78985 206.556C1.27747 207.713 1.9569 208.786 2.80735 209.712C3.63554 214.178 7.19263 214.601 10.9976 213.301H10.9999C11.4159 215.111 12.0237 216.879 12.8048 218.564H19.2526C19.2757 218.492 19.2965 218.418 19.3173 218.347C18.721 218.384 18.1202 218.349 17.5332 218.241C18.0115 217.654 18.4899 217.063 18.9683 216.477C18.9799 216.465 18.9891 216.454 18.9984 216.442C19.241 216.142 19.486 215.845 19.7286 215.545L19.7288 215.544C19.7439 214.623 19.6332 213.705 19.4141 212.814Z" fill="#F2F2F2"/>
<path d="M91.53 218.583C91.53 218.819 91.3403 219.009 91.1042 219.009H0.475593C0.239452 219.009 0.0498047 218.819 0.0498047 218.583C0.0498047 218.348 0.239452 218.158 0.475593 218.158H91.1042C91.3403 218.158 91.53 218.348 91.53 218.583Z" fill="#CCCCCC"/>
</g>
<defs>
<clipPath id="clip0_13658_24711">
<rect width="288" height="219.008" fill="white"/>
</clipPath>
</defs>
</svg>
