<svg width="242" height="155" viewBox="0 0 242 155" fill="none" xmlns="http://www.w3.org/2000/svg">
<g clip-path="url(#clip0_13658_24374)">
<path d="M36.4342 42.3262C36.8378 37.9748 37.9527 33.7193 39.7343 29.7296C40.2308 28.6193 40.7774 27.5334 41.3739 26.472C41.4038 26.4165 41.411 26.3515 41.3939 26.2908C41.3769 26.2301 41.337 26.1784 41.2826 26.1465C41.2282 26.1147 41.1636 26.1053 41.1024 26.1202C41.0412 26.1352 40.9881 26.1733 40.9545 26.2266C38.7853 30.0925 37.2656 34.2891 36.4562 38.6484C36.231 39.8657 36.0618 41.0917 35.9485 42.3262C35.9197 42.6376 36.4056 42.6356 36.4342 42.3262Z" fill="#E6E6E6"/>
<path d="M42.5496 27.2515C44.2484 27.2515 45.6255 25.8731 45.6255 24.1726C45.6255 22.4722 44.2484 21.0938 42.5496 21.0938C40.8508 21.0938 39.4736 22.4722 39.4736 24.1726C39.4736 25.8731 40.8508 27.2515 42.5496 27.2515Z" fill="#E6E6E6"/>
<path d="M36.7485 42.4077C37.0104 39.5848 37.7336 36.824 38.8894 34.2357C39.2116 33.5154 39.5661 32.811 39.9531 32.1224C39.9725 32.0864 39.9772 32.0442 39.9661 32.0048C39.9551 31.9654 39.9292 31.9319 39.8939 31.9112C39.8586 31.8906 39.8167 31.8844 39.777 31.8941C39.7373 31.9038 39.7029 31.9286 39.681 31.9632C38.2738 34.4712 37.2878 37.1937 36.7628 40.0217C36.6167 40.8115 36.5069 41.6068 36.4334 42.4077C36.4147 42.6098 36.7299 42.6085 36.7485 42.4077Z" fill="#E6E6E6"/>
<path d="M40.7162 32.6286C41.8183 32.6286 42.7117 31.7343 42.7117 30.6312C42.7117 29.5281 41.8183 28.6338 40.7162 28.6338C39.6141 28.6338 38.7207 29.5281 38.7207 30.6312C38.7207 31.7343 39.6141 32.6286 40.7162 32.6286Z" fill="#E6E6E6"/>
<path d="M36.3506 42.22C34.8224 39.833 33.6963 37.2109 33.0172 34.4585C32.8286 33.6922 32.6752 32.9185 32.5572 32.1373C32.5504 32.097 32.5282 32.0609 32.4953 32.0366C32.4624 32.0123 32.4213 32.0018 32.3808 32.0073C32.3403 32.0127 32.3035 32.0337 32.2781 32.0658C32.2528 32.0979 32.2409 32.1386 32.2449 32.1793C32.6764 35.0232 33.5719 37.7768 34.8957 40.3299C35.2658 41.0426 35.668 41.7373 36.1021 42.414C36.2116 42.5848 36.4593 42.3897 36.3506 42.22Z" fill="#E6E6E6"/>
<path d="M32.2426 32.488C33.3447 32.488 34.2381 31.5937 34.2381 30.4906C34.2381 29.3874 33.3447 28.4932 32.2426 28.4932C31.1405 28.4932 30.2471 29.3874 30.2471 30.4906C30.2471 31.5937 31.1405 32.488 32.2426 32.488Z" fill="#E6E6E6"/>
<path d="M30.2246 43.987V40.0625C30.225 39.6723 30.3801 39.2982 30.6557 39.0223C30.9314 38.7464 31.3051 38.5913 31.6949 38.5908H40.8433C41.2331 38.5913 41.6068 38.7464 41.8825 39.0223C42.1581 39.2982 42.3131 39.6723 42.3136 40.0625V43.987C42.3131 44.3772 42.1581 44.7512 41.8825 45.0271C41.6068 45.303 41.2331 45.4582 40.8433 45.4587H31.6949C31.3051 45.4582 30.9314 45.303 30.6557 45.0271C30.3801 44.7512 30.225 44.3772 30.2246 43.987Z" fill="#F2F2F2"/>
<path d="M40.517 18.9683H36.5963C36.2064 18.9679 35.8327 18.8127 35.5571 18.5368C35.2815 18.2609 35.1264 17.8868 35.126 17.4966V1.47168C35.1264 1.0815 35.2815 0.707428 35.5571 0.43153C35.8327 0.155632 36.2064 0.000439724 36.5963 0H40.517C40.9068 0.000439724 41.2805 0.155632 41.5562 0.43153C41.8318 0.707428 41.9868 1.0815 41.9873 1.47168V17.4966C41.9868 17.8868 41.8318 18.2609 41.5562 18.5368C41.2805 18.8127 40.9068 18.9679 40.517 18.9683Z" fill="#F2F2F2"/>
<path d="M41.8236 3.10645H35.2891V4.4146H41.8236V3.10645Z" fill="#CCCCCC"/>
<path d="M41.8236 13.2451H35.2891V14.5533H41.8236V13.2451Z" fill="#CCCCCC"/>
<path d="M50.3188 18.9683H46.398C46.0082 18.9679 45.6345 18.8127 45.3589 18.5368C45.0832 18.2609 44.9282 17.8868 44.9277 17.4966V1.47168C44.9282 1.0815 45.0832 0.707428 45.3589 0.43153C45.6345 0.155632 46.0082 0.000439724 46.398 0H50.3188C50.7086 0.000439724 51.0823 0.155632 51.3579 0.43153C51.6336 0.707428 51.7886 1.0815 51.789 1.47168V17.4966C51.7886 17.8868 51.6336 18.2609 51.3579 18.5368C51.0823 18.8127 50.7086 18.9679 50.3188 18.9683Z" fill="#F2F2F2"/>
<path d="M51.6254 3.10645H45.0908V4.4146H51.6254V3.10645Z" fill="#CCCCCC"/>
<path d="M51.6254 13.2451H45.0908V14.5533H51.6254V13.2451Z" fill="#CCCCCC"/>
<path d="M60.1205 18.9683H56.1998C55.81 18.9679 55.4363 18.8127 55.1606 18.5368C54.885 18.2609 54.7299 17.8868 54.7295 17.4966V1.47168C54.7299 1.0815 54.885 0.707428 55.1606 0.43153C55.4363 0.155632 55.81 0.000439724 56.1998 0H60.1205C60.5103 0.000439724 60.884 0.155632 61.1597 0.43153C61.4353 0.707428 61.5904 1.0815 61.5908 1.47168V17.4966C61.5904 17.8868 61.4353 18.2609 61.1597 18.5368C60.884 18.8127 60.5103 18.9679 60.1205 18.9683Z" fill="#F2F2F2"/>
<path d="M61.4272 3.10645H54.8926V4.4146H61.4272V3.10645Z" fill="#CCCCCC"/>
<path d="M61.4272 13.2451H54.8926V14.5533H61.4272V13.2451Z" fill="#CCCCCC"/>
<path d="M65.3481 45.4585H61.4273C61.0375 45.4581 60.6638 45.3029 60.3882 45.027C60.1125 44.7511 59.9575 44.377 59.957 43.9869V27.9619C59.9575 27.5717 60.1125 27.1977 60.3882 26.9218C60.6638 26.6459 61.0375 26.4907 61.4273 26.4902H65.3481C65.7379 26.4907 66.1116 26.6459 66.3872 26.9218C66.6629 27.1977 66.8179 27.5717 66.8183 27.9619V43.9869C66.8179 44.377 66.6629 44.7511 66.3872 45.027C66.1116 45.3029 65.7379 45.4581 65.3481 45.4585Z" fill="#F2F2F2"/>
<path d="M66.6547 29.5967H60.1201V30.9048H66.6547V29.5967Z" fill="#CCCCCC"/>
<path d="M66.6547 39.7354H60.1201V41.0435H66.6547V39.7354Z" fill="#CCCCCC"/>
<path d="M75.1498 45.4585H71.2291C70.8393 45.4581 70.4655 45.3029 70.1899 45.027C69.9143 44.7511 69.7592 44.377 69.7588 43.9869V27.9619C69.7592 27.5717 69.9143 27.1977 70.1899 26.9218C70.4655 26.6459 70.8393 26.4907 71.2291 26.4902H75.1498C75.5396 26.4907 75.9133 26.6459 76.189 26.9218C76.4646 27.1977 76.6197 27.5717 76.6201 27.9619V43.9869C76.6197 44.377 76.4646 44.7511 76.189 45.027C75.9133 45.3029 75.5396 45.4581 75.1498 45.4585Z" fill="#F2F2F2"/>
<path d="M76.4565 29.5967H69.9219V30.9048H76.4565V29.5967Z" fill="#CCCCCC"/>
<path d="M76.4565 39.7354H69.9219V41.0435H76.4565V39.7354Z" fill="#CCCCCC"/>
<path d="M84.9516 45.4585H81.0308C80.641 45.4581 80.2673 45.3029 79.9917 45.027C79.716 44.7511 79.561 44.377 79.5605 43.9869V27.9619C79.561 27.5717 79.716 27.1977 79.9917 26.9218C80.2673 26.6459 80.641 26.4907 81.0308 26.4902H84.9516C85.3414 26.4907 85.7151 26.6459 85.9907 26.9218C86.2664 27.1977 86.4214 27.5717 86.4219 27.9619V43.9869C86.4214 44.377 86.2664 44.7511 85.9907 45.027C85.7151 45.3029 85.3414 45.4581 84.9516 45.4585Z" fill="#F2F2F2"/>
<path d="M86.2592 29.5967H79.7246V30.9048H86.2592V29.5967Z" fill="#CCCCCC"/>
<path d="M86.2592 39.7354H79.7246V41.0435H86.2592V39.7354Z" fill="#CCCCCC"/>
<path d="M39.5365 71.9488H35.6158C35.226 71.9483 34.8523 71.7931 34.5766 71.5172C34.301 71.2413 34.1459 70.8673 34.1455 70.4771V54.4521C34.1459 54.062 34.301 53.6879 34.5766 53.412C34.8523 53.1361 35.226 52.9809 35.6158 52.9805H39.5365C39.9263 52.9809 40.3001 53.1361 40.5757 53.412C40.8513 53.6879 41.0064 54.062 41.0068 54.4521V70.4771C41.0064 70.8673 40.8513 71.2413 40.5757 71.5172C40.3001 71.7931 39.9263 71.9483 39.5365 71.9488Z" fill="#F2F2F2"/>
<path d="M40.8432 56.0869H34.3086V57.3951H40.8432V56.0869Z" fill="#CCCCCC"/>
<path d="M40.8432 66.2256H34.3086V67.5337H40.8432V66.2256Z" fill="#CCCCCC"/>
<path d="M49.3383 71.9488H45.4175C45.0277 71.9483 44.654 71.7931 44.3784 71.5172C44.1028 71.2413 43.9477 70.8673 43.9473 70.4771V54.4521C43.9477 54.062 44.1028 53.6879 44.3784 53.412C44.654 53.1361 45.0277 52.9809 45.4175 52.9805H49.3383C49.7281 52.9809 50.1018 53.1361 50.3775 53.412C50.6531 53.6879 50.8081 54.062 50.8086 54.4521V70.4771C50.8081 70.8673 50.6531 71.2413 50.3775 71.5172C50.1018 71.7931 49.7281 71.9483 49.3383 71.9488Z" fill="#F2F2F2"/>
<path d="M50.6449 56.0869H44.1104V57.3951H50.6449V56.0869Z" fill="#CCCCCC"/>
<path d="M50.6449 66.2256H44.1104V67.5337H50.6449V66.2256Z" fill="#CCCCCC"/>
<path d="M59.14 71.9488H55.2193C54.8295 71.9483 54.4558 71.7931 54.1801 71.5172C53.9045 71.2413 53.7495 70.8673 53.749 70.4771V54.4521C53.7495 54.062 53.9045 53.6879 54.1801 53.412C54.4558 53.1361 54.8295 52.9809 55.2193 52.9805H59.14C59.5299 52.9809 59.9036 53.1361 60.1792 53.412C60.4549 53.6879 60.6099 54.062 60.6103 54.4521V70.4771C60.6099 70.8673 60.4549 71.2413 60.1792 71.5172C59.9036 71.7931 59.5299 71.9483 59.14 71.9488Z" fill="#F2F2F2"/>
<path d="M60.4467 56.0869H53.9121V57.3951H60.4467V56.0869Z" fill="#CCCCCC"/>
<path d="M60.4467 66.2256H53.9121V67.5337H60.4467V66.2256Z" fill="#CCCCCC"/>
<path d="M69.9223 18.9683H66.0015C65.6117 18.9679 65.238 18.8127 64.9624 18.5368C64.6867 18.2609 64.5317 17.8868 64.5312 17.4966V1.47168C64.5317 1.0815 64.6867 0.707428 64.9624 0.43153C65.238 0.155632 65.6117 0.000439724 66.0015 0H69.9223C70.3121 0.000439724 70.6858 0.155632 70.9614 0.43153C71.2371 0.707428 71.3921 1.0815 71.3926 1.47168V17.4966C71.3921 17.8868 71.2371 18.2609 70.9614 18.5368C70.6858 18.8127 70.3121 18.9679 69.9223 18.9683Z" fill="#F2F2F2"/>
<path d="M71.2289 3.10645H64.6943V4.4146H71.2289V3.10645Z" fill="#CCCCCC"/>
<path d="M71.2289 13.2451H64.6943V14.5533H71.2289V13.2451Z" fill="#CCCCCC"/>
<path d="M79.724 18.9683H75.8033C75.4135 18.9679 75.0398 18.8127 74.7641 18.5368C74.4885 18.2609 74.3334 17.8868 74.333 17.4966V1.47168C74.3334 1.0815 74.4885 0.707428 74.7641 0.43153C75.0398 0.155632 75.4135 0.000439724 75.8033 0H79.724C80.1138 0.000439724 80.4876 0.155632 80.7632 0.43153C81.0388 0.707428 81.1939 1.0815 81.1943 1.47168V17.4966C81.1939 17.8868 81.0388 18.2609 80.7632 18.5368C80.4876 18.8127 80.1138 18.9679 79.724 18.9683Z" fill="#F2F2F2"/>
<path d="M81.0307 3.10645H74.4961V4.4146H81.0307V3.10645Z" fill="#CCCCCC"/>
<path d="M81.0307 13.2451H74.4961V14.5533H81.0307V13.2451Z" fill="#CCCCCC"/>
<path d="M89.5258 18.9683H85.605C85.2152 18.9679 84.8415 18.8127 84.5659 18.5368C84.2903 18.2609 84.1352 17.8868 84.1348 17.4966V1.47168C84.1352 1.0815 84.2903 0.707428 84.5659 0.43153C84.8415 0.155632 85.2152 0.000439724 85.605 0H89.5258C89.9156 0.000439724 90.2893 0.155632 90.565 0.43153C90.8406 0.707428 90.9956 1.0815 90.9961 1.47168V17.4966C90.9956 17.8868 90.8406 18.2609 90.565 18.5368C90.2893 18.8127 89.9156 18.9679 89.5258 18.9683Z" fill="#F2F2F2"/>
<path d="M90.8324 3.10645H84.2979V4.4146H90.8324V3.10645Z" fill="#CCCCCC"/>
<path d="M90.8324 13.2451H84.2979V14.5533H90.8324V13.2451Z" fill="#CCCCCC"/>
<path d="M99.3275 18.9683H95.4068C95.017 18.9679 94.6433 18.8127 94.3676 18.5368C94.092 18.2609 93.937 17.8868 93.9365 17.4966V1.47168C93.937 1.0815 94.092 0.707428 94.3676 0.43153C94.6433 0.155632 95.017 0.000439724 95.4068 0H99.3275C99.7174 0.000439724 100.091 0.155632 100.367 0.43153C100.642 0.707428 100.797 1.0815 100.798 1.47168V17.4966C100.797 17.8868 100.642 18.2609 100.367 18.5368C100.091 18.8127 99.7174 18.9679 99.3275 18.9683Z" fill="#F2F2F2"/>
<path d="M100.635 3.10645H94.1006V4.4146H100.635V3.10645Z" fill="#CCCCCC"/>
<path d="M100.635 13.2451H94.1006V14.5533H100.635V13.2451Z" fill="#CCCCCC"/>
<path d="M114.012 19.4588H20.8941C20.8075 19.4588 20.7244 19.4243 20.6631 19.363C20.6018 19.3016 20.5674 19.2185 20.5674 19.1317C20.5674 19.045 20.6018 18.9618 20.6631 18.9005C20.7244 18.8391 20.8075 18.8047 20.8941 18.8047H114.012C114.098 18.8047 114.182 18.8391 114.243 18.9005C114.304 18.9618 114.339 19.045 114.339 19.1317C114.339 19.2185 114.304 19.3016 114.243 19.363C114.182 19.4243 114.098 19.4588 114.012 19.4588Z" fill="#CCCCCC"/>
<path d="M114.012 45.949H20.8941C20.8075 45.949 20.7244 45.9145 20.6631 45.8532C20.6018 45.7919 20.5674 45.7087 20.5674 45.622C20.5674 45.5352 20.6018 45.452 20.6631 45.3907C20.7244 45.3294 20.8075 45.2949 20.8941 45.2949H114.012C114.098 45.2949 114.182 45.3294 114.243 45.3907C114.304 45.452 114.339 45.5352 114.339 45.622C114.339 45.7087 114.304 45.7919 114.243 45.8532C114.182 45.9145 114.098 45.949 114.012 45.949Z" fill="#CCCCCC"/>
<path d="M114.012 72.4392H20.8941C20.8075 72.4392 20.7244 72.4048 20.6631 72.3434C20.6018 72.2821 20.5674 72.1989 20.5674 72.1122C20.5674 72.0255 20.6018 71.9423 20.6631 71.8809C20.7244 71.8196 20.8075 71.7852 20.8941 71.7852H114.012C114.098 71.7852 114.182 71.8196 114.243 71.8809C114.304 71.9423 114.339 72.0255 114.339 72.1122C114.339 72.1989 114.304 72.2821 114.243 72.3434C114.182 72.4048 114.098 72.4392 114.012 72.4392Z" fill="#CCCCCC"/>
<path d="M108.497 123.779C108.497 121.25 98.9889 119.2 87.2598 119.2C75.5308 119.2 66.0225 121.25 66.0225 123.779C66.0225 125.399 69.9316 126.822 75.8243 127.636V152.722C75.8243 153.286 76.0481 153.826 76.4464 154.225C76.8446 154.624 77.3848 154.848 77.9481 154.848C78.5113 154.848 79.0515 154.624 79.4498 154.225C79.848 153.826 80.0718 153.286 80.0718 152.722V128.088C82.3171 128.262 84.7365 128.357 87.2598 128.357C89.7832 128.357 92.2026 128.262 94.4479 128.088V152.722C94.4479 153.286 94.6716 153.826 95.0699 154.225C95.4682 154.624 96.0084 154.848 96.5716 154.848C97.1349 154.848 97.675 154.624 98.0733 154.225C98.4716 153.826 98.6954 153.286 98.6954 152.722V127.636C104.588 126.822 108.497 125.399 108.497 123.779Z" fill="#CCCCCC"/>
<path d="M104.411 150.735H108.417L110.322 135.27H104.41L104.411 150.735Z" fill="#A0616A"/>
<path d="M116.142 154.457L103.553 154.458L103.552 149.589L111.277 149.589C112.567 149.589 113.805 150.101 114.717 151.014C115.629 151.927 116.142 153.166 116.142 154.457Z" fill="#2F2E41"/>
<path d="M110.663 148.497L114.485 147.296L111.678 131.97L106.037 133.741L110.663 148.497Z" fill="#A0616A"/>
<path d="M122.97 148.533L110.958 152.306L109.502 147.661L116.873 145.346C118.103 144.959 119.437 145.078 120.581 145.675C121.724 146.273 122.583 147.301 122.97 148.533Z" fill="#2F2E41"/>
<path d="M107.983 141.379L100.656 122.126C99.0119 122.512 85.2255 125.566 80.6081 120.645C79.0256 118.958 78.717 116.514 79.6907 113.382L82.3855 109.992L82.4692 109.997C83.4881 110.05 107.443 111.394 109.085 118.627C110.469 124.724 112.998 136.092 113.74 139.432C113.815 139.777 113.764 140.139 113.595 140.45C113.426 140.761 113.151 141.001 112.821 141.127L109.874 142.233C109.709 142.295 109.535 142.326 109.36 142.326C109.062 142.326 108.77 142.236 108.525 142.067C108.279 141.897 108.09 141.658 107.983 141.379Z" fill="#2F2E41"/>
<path d="M103.736 143.668L96.4087 124.415C94.7647 124.801 80.9784 127.854 76.361 122.934C74.7786 121.247 74.47 118.804 75.4437 115.671L78.1384 112.281L78.2221 112.286C79.241 112.339 103.196 113.683 104.838 120.916C106.222 127.013 108.751 138.382 109.493 141.721C109.568 142.067 109.517 142.428 109.348 142.739C109.179 143.05 108.904 143.29 108.573 143.416L105.627 144.522C105.462 144.584 105.288 144.615 105.113 144.615C104.815 144.615 104.523 144.525 104.278 144.356C104.032 144.186 103.843 143.947 103.736 143.668Z" fill="#2F2E41"/>
<path d="M113.639 97.5158C113.53 97.6607 113.434 97.814 113.349 97.9741L97.2351 99.6735L94.9155 96.4901L89.6582 99.3662L94.2143 107.091L113.977 102.048C114.476 102.534 115.111 102.857 115.797 102.974C116.484 103.091 117.189 102.995 117.821 102.701C118.452 102.406 118.978 101.926 119.33 101.325C119.682 100.723 119.843 100.029 119.791 99.3338C119.739 98.6387 119.477 97.9759 119.039 97.4336C118.602 96.8912 118.01 96.495 117.342 96.2977C116.674 96.1003 115.962 96.1112 115.301 96.3288C114.639 96.5464 114.059 96.9604 113.639 97.5158Z" fill="#A0616A"/>
<path d="M75.3397 116.687C75.1192 116.528 74.947 116.311 74.8421 116.06C74.7372 115.809 74.7038 115.534 74.7455 115.265C75.6547 109.266 74.6087 100.673 73.571 94.5203C73.3586 93.2719 73.4413 91.9911 73.8124 90.7805C74.1834 89.5698 74.8326 88.4629 75.7079 87.5486C76.5832 86.6342 77.6603 85.9378 78.8529 85.515C80.0454 85.0923 81.3203 84.955 82.5755 85.1141C83.6675 85.2585 84.7492 85.4719 85.8143 85.7532C87.5834 86.1991 89.1483 87.2343 90.2517 88.6885C91.3551 90.1428 91.9313 91.9296 91.8856 93.7551C91.7304 99.6923 92.9348 107.1 93.4598 110.009C93.4957 110.209 93.49 110.414 93.4431 110.612C93.3962 110.809 93.3092 110.995 93.1874 111.158C93.068 111.318 92.9164 111.452 92.7422 111.551C92.568 111.649 92.3752 111.71 92.1761 111.73C86.3577 112.324 80.0831 115.164 76.8608 116.804C76.6537 116.911 76.4242 116.967 76.1912 116.968C75.8848 116.967 75.5867 116.869 75.3397 116.687Z" fill="#537FE7"/>
<path d="M91.0461 101.215C90.8663 101.144 90.7022 101.038 90.5635 100.904C90.4248 100.769 90.3141 100.608 90.2379 100.431L86.993 92.9275C86.7965 92.4742 86.6912 91.9866 86.6831 91.4925C86.675 90.9984 86.7643 90.5076 86.9458 90.048C87.1273 89.5885 87.3975 89.1693 87.741 88.8143C88.0844 88.4594 88.4944 88.1756 88.9475 87.9793C89.4005 87.7831 89.8878 87.6781 90.3814 87.6704C90.875 87.6627 91.3653 87.7524 91.8243 87.9345C92.2832 88.1166 92.7018 88.3874 93.0562 88.7315C93.4105 89.0755 93.6936 89.4861 93.8893 89.9398L97.1343 97.4429C97.2886 97.8011 97.2948 98.206 97.1513 98.5687C97.0079 98.9315 96.7266 99.2225 96.3691 99.378L92.1713 101.197C91.9943 101.274 91.8036 101.316 91.6105 101.319C91.4173 101.322 91.2255 101.286 91.0461 101.215Z" fill="#537FE7"/>
<path d="M98.2822 96.8615C98.1739 97.0064 98.0772 97.1597 97.993 97.3198L81.8787 99.0192L79.5591 95.8358L74.3018 98.712L78.8578 106.437L98.6208 101.393C99.1194 101.88 99.7542 102.203 100.441 102.32C101.127 102.436 101.833 102.341 102.464 102.046C103.095 101.752 103.622 101.272 103.974 100.67C104.326 100.069 104.486 99.3745 104.434 98.6795C104.382 97.9844 104.12 97.3216 103.683 96.7793C103.246 96.2369 102.653 95.8407 101.986 95.6434C101.318 95.446 100.606 95.4569 99.9442 95.6745C99.2826 95.8921 98.7029 96.3061 98.2822 96.8615Z" fill="#A0616A"/>
<path d="M75.6896 101.542C75.5098 101.471 75.3458 101.365 75.2071 101.231C75.0683 101.096 74.9576 100.935 74.8814 100.758L71.6366 93.2547C71.4401 92.8014 71.3348 92.3137 71.3267 91.8196C71.3186 91.3256 71.4078 90.8347 71.5894 90.3752C71.7709 89.9156 72.0411 89.4964 72.3845 89.1415C72.728 88.7865 73.138 88.5028 73.591 88.3065C74.0441 88.1102 74.5313 88.0052 75.025 87.9975C75.5186 87.9898 76.0089 88.0796 76.4678 88.2616C76.9268 88.4437 77.3454 88.7145 77.6997 89.0586C78.054 89.4027 78.3372 89.8133 78.5329 90.2669L81.7778 97.77C81.9322 98.1282 81.9383 98.5331 81.7949 98.8959C81.6514 99.2586 81.3701 99.5497 81.0126 99.7051L76.8148 101.524C76.6378 101.601 76.4472 101.643 76.254 101.646C76.0609 101.649 75.869 101.614 75.6896 101.542Z" fill="#537FE7"/>
<path d="M81.9779 82.5619C86.4099 82.5619 90.0027 78.9657 90.0027 74.5295C90.0027 70.0933 86.4099 66.4971 81.9779 66.4971C77.546 66.4971 73.9531 70.0933 73.9531 74.5295C73.9531 78.9657 77.546 82.5619 81.9779 82.5619Z" fill="#A0616A"/>
<path d="M76.2412 80.0425C76.2068 79.9416 76.1959 79.8343 76.2093 79.7286C76.2227 79.6229 76.2601 79.5216 76.3187 79.4327C76.3772 79.3437 76.4553 79.2693 76.547 79.2152C76.6387 79.1611 76.7416 79.1287 76.8477 79.1205C77.0651 79.1324 77.2778 79.1881 77.473 79.2845C77.6682 79.3809 77.8418 79.5159 77.9835 79.6814C78.2739 80.0166 78.612 80.3071 78.9869 80.5438C79.3751 80.7397 79.9016 80.7118 80.1229 80.3384C80.3307 79.9877 80.1883 79.5182 80.0625 79.1108C79.7424 78.0746 79.5633 76.9998 79.53 75.9157C79.4937 74.7055 79.6643 73.4426 80.3336 72.4987C81.1975 71.2806 82.7421 70.8181 84.2039 70.8516C85.6657 70.8852 87.1038 71.3369 88.5517 71.6224C89.0516 71.7209 89.6391 71.7713 89.9735 71.3836C90.329 70.9712 90.1984 70.3039 90.0472 69.7471C89.6548 68.3024 89.2385 66.8088 88.3269 65.642C87.3412 64.4297 85.9331 63.6362 84.3863 63.4214C82.9012 63.2373 81.3937 63.4086 79.9877 63.9212C77.697 64.6439 75.6813 66.0495 74.2102 67.9499C72.6938 69.9709 72.0385 72.5108 72.3877 75.014C72.7289 77.1943 73.8831 79.164 75.6177 80.5262L76.2412 80.0425Z" fill="#2F2E41"/>
<path d="M45.6002 99.3799C46.0038 95.0285 47.1187 90.773 48.9003 86.7833C49.3969 85.673 49.9434 84.5871 50.5399 83.5257C50.5698 83.4702 50.577 83.4052 50.56 83.3445C50.5429 83.2838 50.503 83.2321 50.4486 83.2002C50.3942 83.1684 50.3296 83.159 50.2684 83.1739C50.2072 83.1889 50.1542 83.227 50.1205 83.2803C47.9513 87.1463 46.4316 91.3428 45.6222 95.7021C45.397 96.9194 45.2278 98.1454 45.1145 99.3799C45.0857 99.6913 45.5716 99.6893 45.6002 99.3799Z" fill="#3F3D56"/>
<path d="M51.7166 84.3052C53.4154 84.3052 54.7925 82.9268 54.7925 81.2263C54.7925 79.5259 53.4154 78.1475 51.7166 78.1475C50.0178 78.1475 48.6406 79.5259 48.6406 81.2263C48.6406 82.9268 50.0178 84.3052 51.7166 84.3052Z" fill="#537FE7"/>
<path d="M45.9145 99.4615C46.1764 96.6385 46.8997 93.8777 48.0555 91.2894C48.3776 90.5691 48.7321 89.8647 49.1191 89.1761C49.1385 89.1401 49.1432 89.0979 49.1321 89.0585C49.1211 89.0191 49.0952 88.9856 49.0599 88.9649C49.0246 88.9443 48.9827 88.9382 48.943 88.9479C48.9033 88.9575 48.8689 88.9823 48.8471 89.0169C47.4398 91.5249 46.4539 94.2474 45.9288 97.0755C45.7827 97.8652 45.6729 98.6605 45.5994 99.4615C45.5808 99.6635 45.896 99.6622 45.9145 99.4615Z" fill="#3F3D56"/>
<path d="M49.8822 89.6814C50.9843 89.6814 51.8777 88.7871 51.8777 87.6839C51.8777 86.5808 50.9843 85.6865 49.8822 85.6865C48.7801 85.6865 47.8867 86.5808 47.8867 87.6839C47.8867 88.7871 48.7801 89.6814 49.8822 89.6814Z" fill="#537FE7"/>
<path d="M45.5176 99.2728C43.9894 96.8857 42.8633 94.2636 42.1842 91.5112C41.9955 90.7449 41.8422 89.9712 41.7242 89.19C41.7174 89.1497 41.6952 89.1136 41.6623 89.0893C41.6294 89.0651 41.5883 89.0546 41.5478 89.06C41.5073 89.0654 41.4705 89.0864 41.4451 89.1185C41.4198 89.1506 41.4079 89.1913 41.4119 89.232C41.8434 92.0759 42.7389 94.8295 44.0627 97.3827C44.4328 98.0953 44.8349 98.79 45.2691 99.4667C45.3785 99.6375 45.6263 99.4425 45.5176 99.2728Z" fill="#3F3D56"/>
<path d="M41.4086 89.5417C42.5107 89.5417 43.4041 88.6474 43.4041 87.5443C43.4041 86.4411 42.5107 85.5469 41.4086 85.5469C40.3065 85.5469 39.4131 86.4411 39.4131 87.5443C39.4131 88.6474 40.3065 89.5417 41.4086 89.5417Z" fill="#537FE7"/>
<path d="M39.3906 101.04V97.1152C39.3911 96.7251 39.5461 96.351 39.8217 96.0751C40.0974 95.7992 40.4711 95.644 40.8609 95.6436H50.0093C50.3991 95.644 50.7728 95.7992 51.0485 96.0751C51.3241 96.351 51.4792 96.7251 51.4796 97.1152V101.04C51.4792 101.43 51.3241 101.804 51.0485 102.08C50.7728 102.356 50.3991 102.511 50.0093 102.511H40.8609C40.4711 102.511 40.0974 102.356 39.8217 102.08C39.5461 101.804 39.3911 101.43 39.3906 101.04Z" fill="#CCCCCC"/>
<path d="M121.402 99.9053H95.5908C94.9593 99.9053 94.4473 100.418 94.4473 101.05C94.4473 101.682 94.9593 102.195 95.5908 102.195H121.402C122.034 102.195 122.546 101.682 122.546 101.05C122.546 100.418 122.034 99.9053 121.402 99.9053Z" fill="#CCCCCC"/>
<path d="M138.719 102.194H109.64C109.077 102.194 108.537 101.97 108.139 101.571C107.741 101.173 107.517 100.632 107.517 100.069V84.0437C107.517 83.4801 107.741 82.9398 108.139 82.5413C108.537 82.1428 109.077 81.9186 109.64 81.918H138.719C139.282 81.9186 139.822 82.1428 140.22 82.5413C140.618 82.9398 140.842 83.4801 140.843 84.0437V100.069C140.842 100.632 140.618 101.173 140.22 101.571C139.822 101.97 139.282 102.194 138.719 102.194Z" fill="#CCCCCC"/>
<path d="M124.18 94.0182C125.263 94.0182 126.14 93.1397 126.14 92.056C126.14 90.9723 125.263 90.0938 124.18 90.0938C123.097 90.0938 122.22 90.9723 122.22 92.056C122.22 93.1397 123.097 94.0182 124.18 94.0182Z" fill="white"/>
<path d="M212.724 123.779C212.724 121.25 203.215 119.2 191.486 119.2C179.757 119.2 170.249 121.25 170.249 123.779C170.249 125.399 174.158 126.822 180.051 127.636V152.722C180.051 153.286 180.275 153.826 180.673 154.225C181.071 154.624 181.611 154.848 182.175 154.848C182.738 154.848 183.278 154.624 183.676 154.225C184.075 153.826 184.298 153.286 184.298 152.722V128.088C186.544 128.262 188.963 128.357 191.486 128.357C194.01 128.357 196.429 128.262 198.674 128.088V152.722C198.674 153.286 198.898 153.826 199.296 154.225C199.695 154.624 200.235 154.848 200.798 154.848C201.361 154.848 201.902 154.624 202.3 154.225C202.698 153.826 202.922 153.286 202.922 152.722V127.636C208.815 126.822 212.724 125.399 212.724 123.779Z" fill="#CCCCCC"/>
<path d="M193.834 81.8709C198.886 81.8709 202.982 77.7711 202.982 72.7138C202.982 67.6564 198.886 63.5566 193.834 63.5566C188.781 63.5566 184.686 67.6564 184.686 72.7138C184.686 77.7711 188.781 81.8709 193.834 81.8709Z" fill="#2F2E41"/>
<path d="M171.067 151.062H167.062L165.156 135.597H171.068L171.067 151.062Z" fill="#FFB8B8"/>
<path d="M164.201 149.916H171.926V154.785H159.337C159.337 154.145 159.463 153.512 159.707 152.921C159.952 152.331 160.31 151.794 160.762 151.342C161.213 150.89 161.749 150.531 162.34 150.287C162.93 150.042 163.562 149.916 164.201 149.916Z" fill="#2F2E41"/>
<path d="M164.815 148.824L160.993 147.624L163.8 132.297L169.441 134.068L164.815 148.824Z" fill="#FFB8B8"/>
<path d="M158.606 145.673L165.976 147.988L164.52 152.633L152.508 148.86C152.7 148.25 153.009 147.684 153.419 147.193C153.829 146.703 154.331 146.298 154.898 146.002C155.464 145.706 156.083 145.525 156.719 145.468C157.355 145.412 157.996 145.481 158.606 145.673Z" fill="#2F2E41"/>
<path d="M166.118 142.653C165.942 142.653 165.768 142.622 165.604 142.56L162.657 141.454C162.326 141.329 162.052 141.088 161.883 140.777C161.714 140.466 161.663 140.105 161.738 139.759C162.48 136.42 165.008 125.051 166.393 118.954C168.035 111.721 191.99 110.377 193.009 110.324L193.092 110.319L195.787 113.709C196.761 116.842 196.452 119.285 194.87 120.972C190.252 125.893 176.466 122.839 174.822 122.453L167.494 141.706C167.388 141.985 167.199 142.224 166.953 142.394C166.707 142.563 166.416 142.653 166.118 142.653Z" fill="#2F2E41"/>
<path d="M170.366 144.943C170.19 144.943 170.016 144.911 169.852 144.849L166.905 143.743C166.574 143.618 166.3 143.378 166.131 143.066C165.962 142.755 165.911 142.394 165.986 142.048C166.728 138.709 169.256 127.341 170.641 121.243C172.283 114.01 196.238 112.667 197.257 112.613L197.34 112.608L200.035 115.998C201.009 119.131 200.7 121.574 199.118 123.261C194.5 128.181 180.714 125.128 179.07 124.742L171.742 143.995C171.636 144.274 171.447 144.514 171.201 144.683C170.955 144.852 170.664 144.942 170.366 144.943Z" fill="#2F2E41"/>
<path d="M161.84 97.8429C161.948 97.9879 162.044 98.1411 162.129 98.3013L178.243 100.001L180.563 96.8172L185.82 99.6934L181.264 107.418L161.501 102.375C161.002 102.861 160.368 103.184 159.681 103.301C158.994 103.418 158.289 103.322 157.658 103.028C157.027 102.733 156.5 102.253 156.148 101.652C155.796 101.05 155.635 100.356 155.687 99.6609C155.739 98.9658 156.001 98.3031 156.439 97.7607C156.876 97.2184 157.468 96.8222 158.136 96.6248C158.804 96.4275 159.516 96.4383 160.178 96.6559C160.839 96.8735 161.419 97.2875 161.84 97.8429Z" fill="#FFB8B8"/>
<path d="M199.287 117.295C199.054 117.295 198.824 117.238 198.617 117.131C195.395 115.492 189.121 112.651 183.302 112.057C183.103 112.037 182.91 111.976 182.736 111.878C182.562 111.779 182.41 111.645 182.291 111.485C182.169 111.322 182.082 111.137 182.035 110.939C181.988 110.741 181.983 110.536 182.018 110.336C182.543 107.427 183.748 100.019 183.593 94.0822C183.547 92.2567 184.123 90.47 185.227 89.0157C186.33 87.5614 187.895 86.5262 189.664 86.0803C190.729 85.7991 191.811 85.5856 192.903 85.4412C194.158 85.2821 195.433 85.4194 196.625 85.8422C197.818 86.2649 198.895 86.9614 199.77 87.8757C200.646 88.7901 201.295 89.8969 201.666 91.1076C202.037 92.3183 202.12 93.5991 201.907 94.8475C200.87 101 199.824 109.594 200.733 115.592C200.774 115.861 200.741 116.136 200.636 116.387C200.531 116.638 200.359 116.856 200.138 117.015C199.891 117.196 199.593 117.294 199.287 117.295Z" fill="#537FE7"/>
<path d="M183.891 101.646C183.69 101.646 183.491 101.604 183.307 101.524L179.109 99.7051C178.752 99.5496 178.47 99.2587 178.327 98.8959C178.184 98.5331 178.19 98.1283 178.344 97.77L181.589 90.2669C181.785 89.8133 182.068 89.4027 182.422 89.0586C182.776 88.7145 183.195 88.4437 183.654 88.2616C184.113 88.0796 184.603 87.9898 185.097 87.9975C185.59 88.0052 186.078 88.1102 186.531 88.3065C186.984 88.5028 187.394 88.7865 187.737 89.1415C188.081 89.4964 188.351 89.9156 188.532 90.3752C188.714 90.8347 188.803 91.3256 188.795 91.8196C188.787 92.3137 188.682 92.8014 188.485 93.2547L185.24 100.758C185.126 101.021 184.938 101.246 184.698 101.403C184.458 101.561 184.178 101.645 183.891 101.646Z" fill="#537FE7"/>
<path d="M193.499 82.8891C197.931 82.8891 201.524 79.2928 201.524 74.8567C201.524 70.4205 197.931 66.8242 193.499 66.8242C189.067 66.8242 185.475 70.4205 185.475 74.8567C185.475 79.2928 189.067 82.8891 193.499 82.8891Z" fill="#FFB8B8"/>
<path d="M185.331 70.9104C189.132 73.2329 193.417 74.6462 197.853 75.0404L196.533 73.4573C197.494 73.813 198.506 74.014 199.53 74.0528C200.552 74.0369 201.624 73.6427 202.204 72.7997C202.463 72.3806 202.617 71.9051 202.653 71.4137C202.688 70.9223 202.605 70.4295 202.409 69.9774C202.006 69.0758 201.38 68.2922 200.59 67.7012C199.189 66.592 197.536 65.8469 195.777 65.5323C194.019 65.2178 192.21 65.3435 190.512 65.8984C189.348 66.2468 188.304 66.9166 187.502 67.831C186.742 68.7704 185.277 69.6074 185.667 70.752L185.331 70.9104Z" fill="#2F2E41"/>
<path d="M194.849 64.4283C192.318 61.8592 189.255 59.8767 185.876 58.6203C183.707 57.816 181.346 57.319 179.079 57.7758C176.811 58.2326 174.667 59.8028 174.034 62.0299C173.517 63.8509 174.051 65.8117 174.854 67.526C175.656 69.2402 176.728 70.8299 177.377 72.6081C178.04 74.4225 178.239 76.3738 177.957 78.2848C177.675 80.1959 176.92 82.0061 175.762 83.5513C174.604 85.0964 173.078 86.3276 171.324 87.1329C169.57 87.9382 167.642 88.2922 165.717 88.1628C167.945 88.4619 169.999 89.5099 172.176 90.0678C174.354 90.6257 176.925 90.5878 178.543 89.0261C180.256 87.3738 180.29 84.6872 180.207 82.3079L179.838 71.6971C179.775 69.8933 179.721 68.0318 180.371 66.3482C181.021 64.6646 182.566 63.1904 184.369 63.2057C185.735 63.2173 186.945 64.046 188.041 64.8632C189.137 65.6804 190.297 66.5522 191.658 66.6738C193.019 66.7953 194.573 65.787 194.471 64.4229" fill="#2F2E41"/>
<path d="M157.548 91.9268L176.025 92.3634L178.702 112.135L161.638 112.518L157.548 91.9268Z" fill="#E6E6E6"/>
<path d="M177.196 97.1886C177.304 97.3336 177.401 97.4868 177.485 97.647L193.599 99.3464L195.919 96.1629L201.176 99.0391L196.62 106.764L176.857 101.72C176.359 102.207 175.724 102.53 175.037 102.647C174.351 102.763 173.645 102.668 173.014 102.374C172.383 102.079 171.856 101.599 171.504 100.998C171.152 100.396 170.992 99.7017 171.044 99.0066C171.096 98.3115 171.358 97.6488 171.795 97.1064C172.233 96.5641 172.825 96.1679 173.493 95.9705C174.16 95.7732 174.872 95.784 175.534 96.0016C176.196 96.2192 176.775 96.6332 177.196 97.1886Z" fill="#FFB8B8"/>
<path d="M199.247 101.973C199.046 101.973 198.848 101.931 198.663 101.851L194.466 100.032C194.108 99.8768 193.827 99.5858 193.683 99.223C193.54 98.8603 193.546 98.4554 193.7 98.0972L196.945 90.5941C197.141 90.1404 197.424 89.7298 197.779 89.3857C198.133 89.0417 198.552 88.7709 199.01 88.5888C199.469 88.4067 199.96 88.317 200.453 88.3247C200.947 88.3324 201.434 88.4374 201.887 88.6336C202.34 88.8299 202.75 89.1137 203.094 89.4686C203.437 89.8236 203.707 90.2428 203.889 90.7023C204.07 91.1619 204.16 91.6527 204.152 92.1468C204.143 92.6409 204.038 93.1285 203.842 93.5818L200.597 101.085C200.483 101.348 200.294 101.573 200.054 101.731C199.815 101.888 199.534 101.973 199.247 101.973Z" fill="#537FE7"/>
<path d="M161.263 101.867H31.2253C30.662 101.867 30.1219 102.091 29.7236 102.49C29.3253 102.888 29.1016 103.429 29.1016 103.993C29.1016 104.557 29.3253 105.097 29.7236 105.496C30.1219 105.895 30.662 106.119 31.2253 106.119H34.9827V152.395C34.9827 152.959 35.2064 153.499 35.6047 153.898C36.003 154.297 36.5432 154.521 37.1064 154.521C37.6697 154.521 38.2098 154.297 38.6081 153.898C39.0064 153.499 39.2302 152.959 39.2302 152.395V110.203L63.0393 153.398C63.3215 153.885 63.7852 154.24 64.3287 154.385C64.8722 154.531 65.451 154.454 65.9382 154.173C66.4253 153.891 66.781 153.428 66.9271 152.884C67.0733 152.34 66.9979 151.761 66.7177 151.272L41.8288 106.119H155.546V106.146L130.672 151.272C130.391 151.761 130.314 152.341 130.46 152.885C130.606 153.43 130.962 153.894 131.449 154.176C131.937 154.458 132.517 154.534 133.061 154.389C133.605 154.243 134.069 153.886 134.35 153.398L155.546 114.945V152.395C155.546 152.959 155.769 153.499 156.168 153.898C156.566 154.297 157.106 154.521 157.669 154.521C158.233 154.521 158.773 154.297 159.171 153.898C159.569 153.499 159.793 152.959 159.793 152.395V107.24L160.411 106.119H161.263C161.827 106.119 162.367 105.895 162.765 105.496C163.163 105.097 163.387 104.557 163.387 103.993C163.387 103.429 163.163 102.888 162.765 102.49C162.367 102.091 161.827 101.867 161.263 101.867Z" fill="#3F3D56"/>
<path d="M241.611 155H0.388882C0.2859 154.999 0.18724 154.958 0.114526 154.885C0.0418119 154.812 0.000976562 154.713 0.000976562 154.61C0.000976562 154.507 0.0418119 154.408 0.114526 154.335C0.18724 154.262 0.2859 154.221 0.388882 154.221H241.611C241.714 154.221 241.813 154.262 241.886 154.335C241.959 154.408 242 154.507 242 154.61C242 154.713 241.959 154.812 241.886 154.885C241.813 154.958 241.714 155 241.611 155Z" fill="#3F3D56"/>
</g>
<defs>
<clipPath id="clip0_13658_24374">
<rect width="242" height="155" fill="white"/>
</clipPath>
</defs>
</svg>
